<?xml version="1.0" encoding="UTF-8"?>
<svg version="1.1" xmlns="http://www.w3.org/2000/svg" width="220" height="220">
<path d="M0 0 C72.6 0 145.2 0 220 0 C220 72.6 220 145.2 220 220 C147.4 220 74.8 220 0 220 C0 147.4 0 74.8 0 0 Z " fill="#FAF6F4" transform="translate(0,0)"/>
<path d="M0 0 C0.77454324 -0.00256327 1.54908648 -0.00512655 2.34710073 -0.0077675 C4.92054219 -0.01267565 7.49338583 0.00373781 10.06677246 0.02018738 C11.92014553 0.02103429 13.7735196 0.02055725 15.62689209 0.01885986 C20.64287612 0.01800101 25.65864384 0.03560907 30.67457771 0.05658174 C35.92228212 0.07536679 41.16999177 0.07710042 46.41772461 0.08065796 C56.34814311 0.08997304 66.27846224 0.1145796 76.20883703 0.14470643 C89.63262431 0.18454544 103.05643887 0.20070965 116.48027039 0.21821308 C137.62050693 0.24640103 158.7605338 0.30617422 179.90075684 0.36076355 C179.90075684 29.07076355 179.90075684 57.78076355 179.90075684 87.36076355 C179.24075684 87.36076355 178.58075684 87.36076355 177.90075684 87.36076355 C176.58598706 85.72322372 175.34865276 84.02314082 174.15075684 82.29826355 C171.69502559 78.8208047 169.23098616 75.47890222 166.40075684 72.29826355 C163.90075684 69.36076355 163.90075684 69.36076355 163.90075684 67.36076355 C163.24075684 67.36076355 162.58075684 67.36076355 161.90075684 67.36076355 C161.90075684 66.70076355 161.90075684 66.04076355 161.90075684 65.36076355 C147.13845404 67.23356081 132.51624569 69.56455266 117.90075684 72.36076355 C119.37010309 76.6266075 121.61891303 80.01389348 124.27575684 83.61076355 C125.16816006 84.84088702 126.06006357 86.07137313 126.95153809 87.3021698 C127.42542969 87.9533075 127.89932129 88.60444519 128.38757324 89.27531433 C131.10232038 93.01674222 133.78539965 96.78038375 136.46325684 100.54826355 C136.98774414 101.27883972 137.51223145 102.00941589 138.0526123 102.76213074 C138.54003906 103.44823425 139.02746582 104.13433777 139.52966309 104.8412323 C139.96351318 105.44862244 140.39736328 106.05601257 140.84436035 106.68180847 C141.90075684 108.36076355 141.90075684 108.36076355 142.90075684 111.36076355 C133.55429005 114.02223651 124.14444401 116.22756399 114.65075684 118.29826355 C106.49895656 120.07661291 98.39456985 121.93848593 90.33825684 124.11076355 C71.61036671 129.14257827 71.61036671 129.14257827 66.90075684 127.36076355 C65.34101638 125.19996704 64.15846264 123.27178135 62.96325684 120.92326355 C62.33077065 119.73619657 61.69661028 118.55002033 61.06091309 117.3646698 C60.55684937 116.41418762 60.55684937 116.41418762 60.04260254 115.44450378 C57.79339042 111.33994415 55.32751348 107.36192095 52.90075684 103.36076355 C51.93501031 101.75323265 50.97015293 100.14516721 50.00622559 98.5365448 C49.53056152 97.74377136 49.05489746 96.95099792 48.56481934 96.13420105 C38.54528809 79.4349823 38.54528809 79.4349823 37.46154785 77.62858582 C36.74998772 76.44276144 36.03823407 75.25705318 35.32629395 74.07145691 C33.25795056 70.62636528 31.19442213 67.17846284 29.13513184 63.72795105 C23.72397353 54.67055138 18.26020887 45.64826267 12.71325684 36.67326355 C12.1483252 35.75786804 11.58339355 34.84247253 11.00134277 33.89933777 C10.47959473 33.05774109 9.95784668 32.21614441 9.42028809 31.3490448 C8.95727295 30.60179138 8.49425781 29.85453796 8.01721191 29.0846405 C7.01467633 27.40497396 7.01467633 27.40497396 5.90075684 26.36076355 C3.20284298 26.25569016 0.53650966 26.22061243 -2.16174316 26.23576355 C-2.98779053 26.23769714 -3.81383789 26.23963074 -4.66491699 26.24162292 C-15.48516449 26.31352489 -26.29297299 26.83911025 -37.09924316 27.36076355 C-33.46080956 16.58276212 -26.28944523 8.6112529 -16.09924316 3.36076355 C-10.57569114 1.00368633 -6.0368281 -0.07448927 0 0 Z " fill="#F14E44" transform="translate(40.0992431640625,-0.3607635498046875)"/>
<path d="M0 0 C2.97984794 1.48992397 3.35870238 3.66341532 4.6796875 6.6875 C5.19660156 7.86183594 5.71351563 9.03617188 6.24609375 10.24609375 C6.78923868 11.49731937 7.33220627 12.74862199 7.875 14 C8.40480469 15.20785156 8.93460938 16.41570312 9.48046875 17.66015625 C11.37454962 21.97941264 13.25989815 26.30245354 15.14477539 30.62573242 C17.1852012 35.26773823 19.37292171 39.80187175 21.6875 44.3125 C24.83812375 50.5305998 27.7801506 56.82400526 30.625 63.1875 C31.19214722 64.45436646 31.19214722 64.45436646 31.77075195 65.74682617 C33.1650309 68.8682237 34.55658099 71.99068724 35.93164062 75.12060547 C36.73915229 76.95846921 37.55669526 78.79191637 38.375 80.625 C39.03628906 82.12933594 39.03628906 82.12933594 39.7109375 83.6640625 C40.92035323 86.27947328 40.92035323 86.27947328 44 88 C51.41622614 88.71575206 58.11783135 86.69495573 65.25 84.8125 C66.48113525 84.49732422 67.71227051 84.18214844 68.98071289 83.85742188 C74.69580884 82.39290765 80.40157069 80.8941436 86.10546875 79.38671875 C87.01458008 79.15041748 87.92369141 78.91411621 88.86035156 78.6706543 C90.53288242 78.23540967 92.20301401 77.7907974 93.87011719 77.33520508 C101.56252133 75.33534687 101.56252133 75.33534687 105 77 C106.68686377 79.4351952 107.99052204 81.68540094 109.3125 84.3125 C110.17473238 85.93874865 111.03950034 87.56365445 111.90625 89.1875 C112.38707031 90.09757812 112.86789063 91.00765625 113.36328125 91.9453125 C116.24248848 97.31891645 119.23637722 102.62701078 122.2461853 107.92831421 C123.29771837 109.78638074 124.33814837 111.65036702 125.37817383 113.51489258 C126.03930078 114.68343127 126.7009797 115.85165789 127.36328125 117.01953125 C127.94376221 118.05182861 128.52424316 119.08412598 129.12231445 120.14770508 C131.15140036 123.22998445 133.18366477 125.61344712 136 128 C141.92675252 127.98772929 147.10429947 126.15141098 152.625 124.125 C153.46546875 123.82400391 154.3059375 123.52300781 155.171875 123.21289062 C158.11870551 122.15295515 161.05973286 121.07800729 164 120 C165.1662793 119.57299805 166.33255859 119.14599609 167.53417969 118.70605469 C172.65284942 116.83050137 177.7704257 114.95198753 182.88720703 113.07128906 C190.41311499 110.30626564 197.94254389 107.55279363 205.5 104.875 C206.28761719 104.59205078 207.07523438 104.30910156 207.88671875 104.01757812 C208.61503906 103.76169922 209.34335938 103.50582031 210.09375 103.2421875 C210.70927734 103.0241748 211.32480469 102.80616211 211.95898438 102.58154297 C214.58611527 101.83299921 217.30547682 101.4490872 220 101 C220 118.82 220 136.64 220 155 C147.4 155 74.8 155 0 155 C0 103.85 0 52.7 0 0 Z " fill="#F14E44" transform="translate(0,65)"/>
<path d="M0 0 C2.02705298 2.50968464 3.40970936 5.14883344 4.8203125 8.04199219 C7.69234507 13.89617671 10.93254194 19.48989243 14.24707031 25.10351562 C20.49747465 35.74840792 26.64563065 46.44795232 32.75390625 57.17480469 C33.39489258 58.29983398 34.03587891 59.42486328 34.69628906 60.58398438 C35.26178467 61.57809326 35.82728027 62.57220215 36.40991211 63.59643555 C38.3968444 67.04797014 40.45285227 70.45447932 42.51513672 73.86132812 C44.22508569 76.68751575 45.92366924 79.52037496 47.62207031 82.35351562 C48.22019531 83.33835937 48.81832031 84.32320313 49.43457031 85.33789062 C50.00433594 86.29179688 50.57410156 87.24570313 51.16113281 88.22851562 C51.68143066 89.0921875 52.20172852 89.95585938 52.73779297 90.84570312 C54.01020542 93.37967379 54.58350409 95.56053586 54.99707031 98.35351562 C54.00864136 98.55714722 54.00864136 98.55714722 53.00024414 98.76489258 C33.35507564 102.55867666 33.35507564 102.55867666 13.99707031 107.54101562 C11.14101211 108.31453139 8.92762047 108.41786892 5.99707031 108.35351562 C5.51238281 107.23976563 5.02769531 106.12601562 4.52832031 104.97851562 C0.31872656 95.36811395 -4.11496534 85.92379763 -8.87402344 76.57470703 C-17.83467522 58.94408204 -26.42163935 41.14655239 -34.88183594 23.27148438 C-35.34323975 22.29832275 -35.80464355 21.32516113 -36.2800293 20.32250977 C-37.16181305 18.46199556 -38.04161449 16.60054023 -38.91918945 14.73803711 C-39.31033936 13.91247314 -39.70148926 13.08690918 -40.10449219 12.23632812 C-40.44818848 11.50816895 -40.79188477 10.78000977 -41.14599609 10.02978516 C-41.88835009 8.36551451 -41.88835009 8.36551451 -43.00292969 7.35351562 C-43.04373752 5.35393199 -43.04547325 3.35306309 -43.00292969 1.35351562 C-39.09348867 0.91793192 -35.18318752 0.49114174 -31.27197266 0.07177734 C-29.30290198 -0.14108229 -27.33454321 -0.36049533 -25.36621094 -0.58007812 C-3.53646302 -2.90710709 -3.53646302 -2.90710709 0 0 Z " fill="#F04E43" transform="translate(43.0029296875,33.646484375)"/>
<path d="M0 0 C1.33105469 1.41772461 1.33105469 1.41772461 2.671875 3.40234375 C3.16792236 4.12349365 3.66396973 4.84464355 4.17504883 5.58764648 C4.69478271 6.36309814 5.2145166 7.1385498 5.75 7.9375 C6.83041283 9.51152877 7.91243107 11.08445687 8.99609375 12.65625 C9.77509033 13.79126953 9.77509033 13.79126953 10.56982422 14.94921875 C12.72599444 18.04102992 15.05190899 20.9820778 17.3984375 23.9296875 C20.42291661 27.83938001 23.2021372 31.92651586 26 36 C24.62490068 38.75019864 22.79999869 38.9445826 20.01017761 39.90292358 C19.30685806 40.13605255 18.60353851 40.36918152 17.87890625 40.609375 C16.78833672 40.98045883 16.78833672 40.98045883 15.67573547 41.35903931 C13.30698291 42.16309466 10.93484043 42.9566 8.5625 43.75 C6.94070343 44.29835677 5.31912113 44.84734768 3.69775391 45.39697266 C-0.86487648 46.94118639 -5.43153663 48.47313956 -10 50 C-11.03817871 50.34708008 -12.07635742 50.69416016 -13.14599609 51.05175781 C-16.14695783 52.05302334 -19.14815946 53.05338463 -22.15307617 54.04272461 C-25.66309028 55.20196731 -29.15366579 56.40321646 -32.6328125 57.65234375 C-33.40608887 57.92965332 -34.17936523 58.20696289 -34.97607422 58.49267578 C-36.43519392 59.0187359 -37.8927118 59.54927281 -39.34814453 60.08544922 C-43.21718192 61.4832642 -46.92063002 62.46157384 -51 63 C-55.7580752 55.09559399 -60.45852923 47.15821884 -65.14453125 39.2109375 C-65.68464844 38.29570312 -66.22476563 37.38046875 -66.78125 36.4375 C-67.30976562 35.5403125 -67.83828125 34.643125 -68.3828125 33.71875 C-69.49015897 31.85712405 -70.6106375 30.00326435 -71.7421875 28.15625 C-72.29132813 27.2590625 -72.84046875 26.361875 -73.40625 25.4375 C-73.90447266 24.63183594 -74.40269531 23.82617188 -74.91601562 22.99609375 C-76 21 -76 21 -76 19 C-75.08114014 18.764021 -74.16228027 18.52804199 -73.21557617 18.28491211 C-57.47442065 14.24182962 -41.73359493 10.19742282 -26 6.125 C-24.41288208 5.71495728 -24.41288208 5.71495728 -22.79370117 5.29663086 C-16.93518112 3.77831223 -11.09772541 2.20553737 -5.27734375 0.54638672 C-3 0 -3 0 0 0 Z " fill="#F04E44" transform="translate(190,118)"/>
<path d="M0 0 C2.66611194 2.36534967 4.01832245 4.74136921 5.53125 7.953125 C6.0063501 8.9529541 6.4814502 9.9527832 6.97094727 10.98291016 C7.47553467 12.0610498 7.98012207 13.13918945 8.5 14.25 C9.58202604 16.53385664 10.6640574 18.81771075 11.74609375 21.1015625 C12.29120605 22.25817383 12.83631836 23.41478516 13.39794922 24.60644531 C15.76588935 29.6223502 18.16472613 34.62330881 20.5625 39.625 C23.33068706 45.41030643 26.09477869 51.19753189 28.8515625 56.98828125 C37.24909211 74.66359543 37.24909211 74.66359543 46.10986328 92.10986328 C46.47708496 92.81739746 46.84430664 93.52493164 47.22265625 94.25390625 C47.56176025 94.89787354 47.90086426 95.54184082 48.25024414 96.20532227 C49 98 49 98 49 101 C52.79261329 100.19187684 56.5839156 99.37776282 60.375 98.5625 C61.45523438 98.33240234 62.53546875 98.10230469 63.6484375 97.86523438 C65.1953125 97.53168945 65.1953125 97.53168945 66.7734375 97.19140625 C67.72653809 96.98717041 68.67963867 96.78293457 69.66162109 96.57250977 C72.0031062 96.09081435 72.0031062 96.09081435 74 95 C76.31148495 94.92839266 78.6250059 94.91602173 80.9375 94.9375 C82.80728516 94.95103516 82.80728516 94.95103516 84.71484375 94.96484375 C85.79894531 94.97644531 86.88304688 94.98804688 88 95 C91.18490007 95.2773501 91.18490007 95.2773501 94 93 C96.15625 92.7265625 96.15625 92.7265625 98.5 92.625 C102.22582204 92.35117102 102.22582204 92.35117102 105.0625 89.9375 C105.5265625 88.9784375 105.5265625 88.9784375 106 88 C107.98 88.66 109.96 89.32 112 90 C112 91.32 112 92.64 112 94 C110.515 94.495 110.515 94.495 109 95 C108.67 95.66 108.34 96.32 108 97 C108.78375 97.268125 109.5675 97.53625 110.375 97.8125 C113 99 113 99 115 102 C116.485 102.495 116.485 102.495 118 103 C119.63581333 105.4732297 121.11551548 107.91922862 122.5625 110.5 C123.44754363 112.04448466 124.33297205 113.58874886 125.21875 115.1328125 C125.67378906 115.93235352 126.12882812 116.73189453 126.59765625 117.55566406 C127.99158105 119.98532546 129.41174404 122.39730006 130.84375 124.8046875 C131.52715454 125.95420898 131.52715454 125.95420898 132.22436523 127.12695312 C133.10291802 128.60290898 133.98260211 130.07819213 134.86352539 131.55273438 C136.5149307 134.34406853 137.97106647 136.91319942 139 140 C139.8156543 139.71801758 140.63130859 139.43603516 141.47167969 139.14550781 C144.5579257 138.07890538 147.64437594 137.0128978 150.73095703 135.94726562 C152.05558094 135.48981388 153.38012787 135.03213915 154.70458984 134.57421875 C161.06455689 132.37547351 167.42530641 130.18125429 173.8125 128.0625 C181.97923013 125.35306718 190.11229856 122.54510186 198.25 119.75 C199.88149388 119.19005599 201.51300419 118.63015982 203.14453125 118.0703125 C207.09654338 116.71409223 211.04833389 115.35722813 215 114 C213.11447255 110.82171742 211.18646965 107.80843867 208.9375 104.875 C205.91728973 100.92490311 203.88875171 97.95161665 203 93 C202.67 92.34 202.34 91.68 202 91 C202.99 90.01 203.98 89.02 205 88 C205.103125 88.639375 205.20625 89.27875 205.3125 89.9375 C205.6528125 90.9584375 205.6528125 90.9584375 206 92 C206.99 92.33 207.98 92.66 209 93 C209.33 94.65 209.66 96.3 210 98 C211.32 98.33 212.64 98.66 214 99 C214 99.66 214 100.32 214 101 C215.32 101.66 216.64 102.32 218 103 C218 103.66 218 104.32 218 105 C218.66 105 219.32 105 220 105 C220 111.6 220 118.2 220 125 C217.31875 125.928125 214.6375 126.85625 211.875 127.8125 C204.3453378 130.43195609 196.85627765 133.15002201 189.38134766 135.92163086 C178.12475763 140.09373984 166.84294163 144.19531143 155.48065186 148.07162476 C154.17178378 148.51991338 152.8644867 148.97281832 151.55889893 149.43057251 C149.74181937 150.06608934 147.91788387 150.68189908 146.09375 151.296875 C145.05927734 151.65104492 144.02480469 152.00521484 142.95898438 152.37011719 C139.52318458 153.10150031 137.35784099 153.03273654 134 152 C132.14428711 150.18066406 132.14428711 150.18066406 130.58984375 147.765625 C130.00315918 146.85876953 129.41647461 145.95191406 128.81201172 145.01757812 C125.59737915 139.6641884 122.54742674 134.23436494 119.5625 128.75 C118.57626116 126.95309357 117.58801749 125.15729919 116.59971619 123.36152649 C115.64469171 121.62563619 114.69146735 119.88875591 113.73828125 118.15185547 C110.56276849 112.3940086 107.29281875 106.69142154 104 101 C97.77308812 101.63524253 91.92296139 102.91473262 85.875 104.50390625 C83.93235722 105.00220876 81.98964681 105.50024765 80.046875 105.99804688 C77.01790683 106.78010444 73.98978236 107.56516693 70.96289062 108.35522461 C68.01902145 109.12151891 65.07228773 109.8758844 62.125 110.62890625 C61.22894043 110.86638077 60.33288086 111.10385529 59.40966797 111.348526 C47.03353148 114.49149697 47.03353148 114.49149697 41.68457031 111.86157227 C39.53365421 109.4846541 38.37145779 107.13646527 37.046875 104.21484375 C36.51376709 103.05251221 35.98065918 101.89018066 35.43139648 100.69262695 C34.87063542 99.44105035 34.31017571 98.1893387 33.75 96.9375 C33.1702282 95.66260583 32.58957561 94.38811185 32.00805664 93.11401367 C30.3242457 89.4157458 28.6605447 85.70877322 27 82 C26.56478027 81.0315918 26.12956055 80.06318359 25.68115234 79.06542969 C24.00238901 75.32658894 22.33303747 71.58390166 20.68359375 67.83203125 C20.41039307 67.21070312 20.13719238 66.589375 19.85571289 65.94921875 C19.24665172 64.56184518 18.63924246 63.17374592 18.03295898 61.78515625 C16.17682285 57.56205377 14.2487967 53.39737536 12.15820312 49.28515625 C11.48285399 47.9561996 10.81685894 46.62246502 10.15820312 45.28515625 C8.51290247 41.94571484 6.83334459 38.67429601 4.92578125 35.4765625 C-1.40907378 24.04041447 -0.72455493 12.81745631 0 0 Z " fill="#FAF6F4" transform="translate(0,41)"/>
<path d="M0 0 C2.421875 2.16796875 2.421875 2.16796875 4.75 5.1875 C5.16685059 5.72125244 5.58370117 6.25500488 6.01318359 6.80493164 C6.89685569 7.94030339 7.77282547 9.0817055 8.64160156 10.22851562 C10.01613178 12.02103742 11.43382813 13.76990422 12.8671875 15.515625 C13.78733858 16.65554001 14.70663481 17.7961457 15.625 18.9375 C16.28193848 19.73353638 16.28193848 19.73353638 16.95214844 20.5456543 C19.58404182 23.89914456 20.20768693 25.80428204 20 30 C16.10661739 31.00971044 12.20993415 32.00605355 8.3125 33 C6.65831055 33.42925781 6.65831055 33.42925781 4.97070312 33.8671875 C3.90400391 34.13789062 2.83730469 34.40859375 1.73828125 34.6875 C0.75899658 34.93886719 -0.22028809 35.19023438 -1.22924805 35.44921875 C-3.95124123 35.99030753 -6.23772093 36.26943325 -9 36 C-11.421875 33.734375 -11.421875 33.734375 -13.75 30.75 C-14.52859375 29.77546875 -15.3071875 28.8009375 -16.109375 27.796875 C-17.75110945 25.36819346 -18.59244917 23.85285578 -19 21 C-19.66 21 -20.32 21 -21 21 C-22.3671875 19.20703125 -22.3671875 19.20703125 -23.875 16.8125 C-25.62064441 14.09134842 -27.33757265 11.58247593 -29.375 9.0625 C-31 7 -31 7 -31 5 C-24.34613123 3.54294844 -17.69002321 2.09513893 -11 0.8125 C-9.7625 0.57466797 -9.7625 0.57466797 -8.5 0.33203125 C-5.497776 -0.06670163 -3.0243944 -0.38002862 0 0 Z " fill="#F04E43" transform="translate(200,72)"/>
<path d="M0 0 C2.60414895 2.53181148 4.85373015 4.75969953 6.75 7.875 C8.93870885 10.42060368 8.93870885 10.42060368 12.75 10.0625 C18.03090415 9.16324754 23.24300249 7.76118889 28.41503906 6.37329102 C31.77301247 5.48242507 34.49361996 5 38 5 C38 19.52 38 34.04 38 49 C36 49 36 49 33.4375 46.625 C31 44 31 44 30 42 C29.34 42 28.68 42 28 42 C27.7525 41.2575 27.505 40.515 27.25 39.75 C25.90852699 36.79875938 24.39094474 35.15185026 22 33 C21.67 33.99 21.34 34.98 21 36 C21.66 36.99 22.32 37.98 23 39 C22.34 39.66 21.68 40.32 21 41 C19.39344326 38.77252265 17.78970321 36.54310558 16.1875 34.3125 C15.50977539 33.37374023 15.50977539 33.37374023 14.81835938 32.41601562 C12.38530927 29.02395307 10.08490432 25.62260784 8 22 C10.31 22 12.62 22 15 22 C15 20.35 15 18.7 15 17 C14.443125 16.731875 13.88625 16.46375 13.3125 16.1875 C11 15 11 15 8.5 13.4375 C6.2578444 12.14826053 4.51921187 11.46652072 2 11 C2.0928125 9.824375 2.0928125 9.824375 2.1875 8.625 C2.125625 7.75875 2.06375 6.8925 2 6 C1.01 5.34 0.02 4.68 -1 4 C-0.67 2.68 -0.34 1.36 0 0 Z " fill="#FCF2F0" transform="translate(182,97)"/>
<path d="M0 0 C0 11.55 0 23.1 0 35 C-0.66 35 -1.32 35 -2 35 C-3.06658044 33.4607305 -4.05130906 31.864599 -5 30.25 C-8.50939303 24.52687592 -12.5375216 19.64701099 -16.9609375 14.62890625 C-18.80708259 12.24872303 -19.62553675 10.93329546 -20 8 C-20.66 8 -21.32 8 -22 8 C-22 7.01 -22 6.02 -22 5 C-19.08503169 4.1602972 -16.1682814 3.32803997 -13.25 2.5 C-12.0125 2.14228516 -12.0125 2.14228516 -10.75 1.77734375 C-9.95078125 1.55175781 -9.1515625 1.32617188 -8.328125 1.09375 C-7.5949707 0.88427734 -6.86181641 0.67480469 -6.10644531 0.45898438 C-4 0 -4 0 0 0 Z " fill="#EF4F45" transform="translate(220,111)"/>
<path d="M0 0 C11.22 0 22.44 0 34 0 C34 10.56 34 21.12 34 32 C32.10340998 29.15511496 30.7965444 26.41369043 29.375 23.3125 C24.04210697 12.65956429 15.95562369 6.222785 4.7421875 2.1875 C3.17776168 1.73147304 1.5907323 1.35349607 0 1 C0 0.67 0 0.34 0 0 Z " fill="#FBFBFC" transform="translate(186,0)"/>
<path d="M0 0 C1.18608571 2.37217142 2.3455986 4.75844882 3.4453125 7.171875 C9.30144764 19.64680474 16.34429994 27.44263682 29.5625 32.3125 C30.366875 32.539375 31.17125 32.76625 32 33 C32 33.33 32 33.66 32 34 C21.44 34 10.88 34 0 34 C0 22.78 0 11.56 0 0 Z " fill="#FAF9F9" transform="translate(0,186)"/>
<path d="M0 0 C0.33 0 0.66 0 1 0 C1 11.22 1 22.44 1 34 C-10.22 34 -21.44 34 -33 34 C-30.03655571 32.51827785 -27.46715533 31.4799693 -24.375 30.4375 C-15.02670528 26.71472777 -7.49881236 18.93823446 -3 10 C-1.78760002 6.70854151 -0.81187004 3.41127849 0 0 Z " fill="#FCFCFB" transform="translate(219,186)"/>
<path d="M0 0 C2.31 0.66 4.62 1.32 7 2 C7 3.32 7 4.64 7 6 C6.01 6.33 5.02 6.66 4 7 C3.67 7.66 3.34 8.32 3 9 C3.7425 9.2475 4.485 9.495 5.25 9.75 C8.27490317 11.12495599 9.98280015 12.36212327 12 15 C11.75 17.25 11.75 17.25 11 19 C11 18.34 11 17.68 11 17 C10.236875 17.226875 9.47375 17.45375 8.6875 17.6875 C6 18 6 18 4.1875 16.6875 C3 15 3 15 3 13 C-1.29813215 12.84370429 -4.9935745 12.89822941 -9.15625 14 C-14.16918278 15.16546163 -18.93729933 15.22837876 -24.0625 15.125 C-24.92810547 15.11597656 -25.79371094 15.10695312 -26.68554688 15.09765625 C-28.79048779 15.07439723 -30.89528342 15.03854008 -33 15 C-32.34 14.34 -31.68 13.68 -31 13 C-31.66 12.34 -32.32 11.68 -33 11 C-27.74100129 6.57136951 -23.70865867 6.58431719 -17 7 C-13.81509993 7.2773501 -13.81509993 7.2773501 -11 5 C-8.6800285 4.71052049 -6.39431605 4.62343999 -4.05859375 4.5390625 C-1.80034478 4.19897739 -1.80034478 4.19897739 -0.72265625 1.9609375 C-0.48417969 1.31382812 -0.24570313 0.66671875 0 0 Z " fill="#FAFAF9" transform="translate(105,129)"/>
<path d="M0 0 C10.56 0 21.12 0 32 0 C29.91132961 2.08867039 28.57702681 2.67672106 25.875 3.75 C19.91511658 6.31792405 15.2549749 10.11211404 10.3125 14.25 C7.90956409 16.06843799 5.89224326 17.16277169 3 18 C2.01 17.67 1.02 17.34 0 17 C0 11.39 0 5.78 0 0 Z " fill="#FBF9F9" transform="translate(0,0)"/>
<path d="M0 0 C-1.43429001 0.67354499 -2.87257057 1.33859701 -4.3125 2 C-5.11300781 2.37125 -5.91351563 2.7425 -6.73828125 3.125 C-9 4 -9 4 -12 4 C-13.67099977 4.31088368 -15.33871537 4.64080332 -17 5 C-15.88741409 6.32745166 -15.88741409 6.32745166 -13.0625 6.25 C-9.88849772 6.22424745 -7.36630547 5.53451347 -4.375 4.5 C1.71967702 2.49665709 7.649988 2.73126908 14 3 C14 3.33 14 3.66 14 4 C10.39662187 4.67097694 6.79217704 5.33603957 3.1875 6 C1.65125977 6.28617187 1.65125977 6.28617187 0.08398438 6.578125 C-1.39038086 6.84882812 -1.39038086 6.84882812 -2.89453125 7.125 C-4.25348511 7.37636719 -4.25348511 7.37636719 -5.63989258 7.6328125 C-8 8 -8 8 -11 8 C-10.278125 8.98742187 -9.55625 9.97484375 -8.8125 10.9921875 C-7.87475251 12.28627903 -6.93726598 13.58055969 -6 14.875 C-5.52304688 15.52597656 -5.04609375 16.17695312 -4.5546875 16.84765625 C-1 21.7734375 -1 21.7734375 -1 24 C-0.34 24 0.32 24 1 24 C1.33 24.99 1.66 25.98 2 27 C-1.875 26.125 -1.875 26.125 -3 25 C-3 27.31 -3 29.62 -3 32 C-6.34069124 28.88605251 -8.8222918 25.52979951 -11.375 21.75 C-14.42077076 17.25164058 -17.55314525 12.88248721 -21.00390625 8.68359375 C-22 7 -22 7 -22 3 C-6.76004744 -1.96547635 -6.76004744 -1.96547635 0 0 Z " fill="#FAF4F2" transform="translate(180,69)"/>
<path d="M0 0 C0.495 1.98 0.495 1.98 1 4 C-2.28696233 4.79953138 -3.71023192 5.09658936 -7 4 C-7 4.66 -7 5.32 -7 6 C-7.99 6 -8.98 6 -10 6 C-10.33 6.99 -10.66 7.98 -11 9 C-12.8203125 9.6953125 -12.8203125 9.6953125 -15.125 10.125 C-15.93839844 10.28355469 -16.75179687 10.44210938 -17.58984375 10.60546875 C-19.61428616 10.93686046 -21.65040069 11.19581025 -23.6875 11.4375 C-27.06610942 11.84143319 -27.06610942 11.84143319 -30.0625 13.5625 C-33.31739382 15.15532038 -35.42573623 15.25530455 -39 15 C-39.309375 15.9590625 -39.309375 15.9590625 -39.625 16.9375 C-41 19 -41 19 -43.75 19.6875 C-45.91666667 19.89583333 -48.08333333 20.10416667 -50.25 20.3125 C-53.13873876 20.70710705 -53.13873876 20.70710705 -54.375 23.0625 C-54.58125 23.701875 -54.7875 24.34125 -55 25 C-56.794375 24.690625 -56.794375 24.690625 -58.625 24.375 C-62.5576018 23.86418162 -65.3121243 24.43265283 -69 26 C-69.33 25.34 -69.66 24.68 -70 24 C-68.22526042 23.38802083 -66.45052083 22.77604167 -64.67578125 22.1640625 C-62.93542603 21.56392334 -62.93542603 21.56392334 -61.15991211 20.95166016 C-58.56831434 20.05800001 -55.97667564 19.16445871 -53.38500977 18.27099609 C-47.25489434 16.15756768 -41.12494639 14.04366376 -34.99623108 11.92617798 C-33.05574266 11.25576279 -31.1151647 10.58560744 -29.17456055 9.91552734 C-26.74876553 9.07782221 -24.32313711 8.23963442 -21.89770508 7.40087891 C-14.61396411 4.88635985 -7.31535139 2.42102703 0 0 Z " fill="#FCE6E7" transform="translate(215,155)"/>
<path d="M0 0 C2.97984794 1.48992397 3.35870238 3.66341532 4.6796875 6.6875 C5.19660156 7.86183594 5.71351563 9.03617188 6.24609375 10.24609375 C6.78923868 11.49731937 7.33220627 12.74862199 7.875 14 C8.40480469 15.20785156 8.93460938 16.41570312 9.48046875 17.66015625 C11.3918141 22.0187825 13.2948489 26.38100419 15.1953125 30.74438477 C15.54078125 31.53127686 15.88625 32.31816895 16.2421875 33.12890625 C16.53206543 33.79220947 16.82194336 34.4555127 17.12060547 35.13891602 C18.06579749 37.13924883 19.13134525 39.02927803 20.25 40.9375 C22 44 22 44 22 46 C20.68 46 19.36 46 18 46 C17.67 46.99 17.34 47.98 17 49 C17.309375 47.88625 17.309375 47.88625 17.625 46.75 C18.05970273 43.56217997 17.77849395 42.62539583 16 40 C15.278125 39.360625 14.55625 38.72125 13.8125 38.0625 C13.214375 37.381875 12.61625 36.70125 12 36 C12.25 33.25 12.25 33.25 13 31 C12.01 31.33 11.02 31.66 10 32 C9.01 31.67 8.02 31.34 7 31 C7.33 28.36 7.66 25.72 8 23 C7.01 23.33 6.02 23.66 5 24 C4.67 22.68 4.34 21.36 4 20 C3.34 20 2.68 20 2 20 C2 18.02 2 16.04 2 14 C2.66 14 3.32 14 4 14 C3.79503906 13.40832031 3.59007812 12.81664063 3.37890625 12.20703125 C2.0002429 8.16339184 0.68249153 4.23144751 0 0 Z " fill="#E3524A" transform="translate(0,65)"/>
<path d="M0 0 C1 3 1 3 0.22265625 5.04296875 C-0.16019531 5.75066406 -0.54304687 6.45835938 -0.9375 7.1875 C-1.31777344 7.90292969 -1.69804688 8.61835938 -2.08984375 9.35546875 C-2.39019531 9.89816406 -2.69054687 10.44085938 -3 11 C-2.06486572 10.95456055 -2.06486572 10.95456055 -1.11083984 10.90820312 C10.59921229 10.34719086 22.27365925 9.81709347 34 10 C34 10.33 34 10.66 34 11 C31.03 11 28.06 11 25 11 C25 11.66 25 12.32 25 13 C23.35451172 13.09087891 23.35451172 13.09087891 21.67578125 13.18359375 C20.22134346 13.26804498 18.76691695 13.35269066 17.3125 13.4375 C16.59126953 13.47681641 15.87003906 13.51613281 15.12695312 13.55664062 C11.3210291 13.78256306 7.73862312 14.22056974 4 15 C2.1746875 14.9690625 2.1746875 14.9690625 0.3125 14.9375 C-3.08086928 14.61844149 -3.08086928 14.61844149 -5 17 C3.91 17 12.82 17 22 17 C22 17.33 22 17.66 22 18 C18.66729126 18.33977725 15.33375214 18.67063063 12 19 C10.59814453 19.14308594 10.59814453 19.14308594 9.16796875 19.2890625 C8.24628906 19.37929688 7.32460937 19.46953125 6.375 19.5625 C5.11816406 19.68818359 5.11816406 19.68818359 3.8359375 19.81640625 C0.23098629 20.04978463 -3.38750243 20 -7 20 C-7 14.06 -7 8.12 -7 2 C-5.35 2 -3.7 2 -2 2 C-1.34 1.34 -0.68 0.68 0 0 Z " fill="#FAECE9" transform="translate(7,15)"/>
<path d="M0 0 C3.3 0 6.6 0 10 0 C10.495 1.98 10.495 1.98 11 4 C3.22766158 5.6347652 -4.31859317 6.38465434 -12.25 6.625 C-13.28640625 6.66367187 -14.3228125 6.70234375 -15.390625 6.7421875 C-20.59646514 6.92811036 -25.79102759 7.04414383 -31 7 C-29.9375 5 -29.9375 5 -28 3 C-24.625 2.8125 -24.625 2.8125 -21 3 C-20.27167969 2.84015625 -19.54335938 2.6803125 -18.79296875 2.515625 C-15.08685556 1.83141949 -11.43996439 1.89390569 -7.6875 1.9375 C-6.94693359 1.94201172 -6.20636719 1.94652344 -5.44335938 1.95117188 C-3.62887101 1.96287825 -1.81442466 1.98081102 0 2 C0 1.34 0 0.68 0 0 Z " fill="#FAFAF8" transform="translate(32,26)"/>
<path d="M0 0 C2.79338987 3.43138632 4.77735487 7.18782761 6.75 11.125 C7.07871094 11.75792969 7.40742188 12.39085938 7.74609375 13.04296875 C8.56197269 14.66439906 9.28852285 16.33012128 10 18 C9.67 18.66 9.34 19.32 9 20 C8.34 20 7.68 20 7 20 C6.34 18.68 5.68 17.36 5 16 C4.67 17.32 4.34 18.64 4 20 C3.01 20 2.02 20 1 20 C1.33 22.31 1.66 24.62 2 27 C-0.09786433 24.35363544 -1.6629712 21.836776 -3.0078125 18.7421875 C-3.52794922 17.55689453 -3.52794922 17.55689453 -4.05859375 16.34765625 C-4.41050781 15.53167969 -4.76242188 14.71570313 -5.125 13.875 C-5.83569106 12.24728821 -6.54661732 10.61967909 -7.2578125 8.9921875 C-7.5686377 8.27401855 -7.87946289 7.55584961 -8.19970703 6.81591797 C-8.76689404 5.52893292 -9.37102756 4.25794487 -10 3 C-7 4 -7 4 -5.83203125 5.84765625 C-5.49558594 6.57855469 -5.15914063 7.30945313 -4.8125 8.0625 C-4.46832031 8.79597656 -4.12414062 9.52945313 -3.76953125 10.28515625 C-3.51558594 10.85105469 -3.26164063 11.41695312 -3 12 C-2.34 11.67 -1.68 11.34 -1 11 C-0.29396596 7.25801961 0 3.81207261 0 0 Z " fill="#FCEEE9" transform="translate(10,61)"/>
<path d="M0 0 C0 0.66 0 1.32 0 2 C-0.99 2.495 -0.99 2.495 -2 3 C-1.855625 3.66386719 -1.71125 4.32773438 -1.5625 5.01171875 C-1.376875 5.89472656 -1.19125 6.77773437 -1 7.6875 C-0.814375 8.55761719 -0.62875 9.42773438 -0.4375 10.32421875 C-0.01027953 12.93712964 0.07616201 15.35813038 0 18 C-1.32 18 -2.64 18 -4 18 C-4.33 18.66 -4.66 19.32 -5 20 C-6.50537035 17.54481265 -8.00444426 15.0861548 -9.5 12.625 C-9.92925781 11.92632812 -10.35851562 11.22765625 -10.80078125 10.5078125 C-14 5.2265625 -14 5.2265625 -14 3 C-12.0424015 2.49713066 -10.08389623 1.9977901 -8.125 1.5 C-7.03445312 1.2215625 -5.94390625 0.943125 -4.8203125 0.65625 C-2 0 -2 0 0 0 Z " fill="#E4564E" transform="translate(128,134)"/>
<path d="M0 0 C3.64901005 3.10841597 5.545067 6.64589196 7.76171875 10.8046875 C9.24908101 13.44158842 11.0140367 15.71981991 13 18 C14.31471568 17.71848913 15.62675767 17.42446661 16.9375 17.125 C18.03384766 16.88136719 18.03384766 16.88136719 19.15234375 16.6328125 C21.20700294 16.17038477 21.20700294 16.17038477 22 14 C24.97 14 27.94 14 31 14 C31 13.34 31 12.68 31 12 C31.99 11.67 32.98 11.34 34 11 C34 10.34 34 9.68 34 9 C34.99 9 35.98 9 37 9 C37 8.01 37 7.02 37 6 C36.01 6 35.02 6 34 6 C33.505 3.03 33.505 3.03 33 0 C40.9646402 7.74937965 40.9646402 7.74937965 41.07421875 11.625 C41.04972656 12.40875 41.02523437 13.1925 41 14 C37.10661739 15.00971044 33.20993415 16.00605355 29.3125 17 C28.20970703 17.28617188 27.10691406 17.57234375 25.97070312 17.8671875 C24.90400391 18.13789062 23.83730469 18.40859375 22.73828125 18.6875 C21.75899658 18.93886719 20.77971191 19.19023438 19.77075195 19.44921875 C17.04875877 19.99030753 14.76227907 20.26943325 12 20 C9.578125 17.734375 9.578125 17.734375 7.25 14.75 C6.47140625 13.77546875 5.6928125 12.8009375 4.890625 11.796875 C3.24889055 9.36819346 2.40755083 7.85285578 2 5 C1.34 5 0.68 5 0 5 C-0.33 4.01 -0.66 3.02 -1 2 C-0.67 1.34 -0.34 0.68 0 0 Z " fill="#D34C47" transform="translate(179,88)"/>
<path d="M0 0 C0 0.99 0 1.98 0 3 C-4.1196377 4.29243536 -7.66831683 5.26252625 -12 5 C-12 5.66 -12 6.32 -12 7 C-16.26616316 8.13764351 -19.56486311 9 -24 9 C-24 9.66 -24 10.32 -24 11 C-25.65 11 -27.3 11 -29 11 C-29.33 12.32 -29.66 13.64 -30 15 C-30.59167969 15.06058594 -31.18335938 15.12117187 -31.79296875 15.18359375 C-35.90978208 15.62012371 -39.95544533 16.08671346 -44 17 C-44.33 17.99 -44.66 18.98 -45 20 C-47.64 19.67 -50.28 19.34 -53 19 C-53 19.66 -53 20.32 -53 21 C-54.65 21 -56.3 21 -58 21 C-55.05192014 18.57080284 -52.38249493 17.25585497 -48.765625 16.0546875 C-47.20835693 15.52862915 -47.20835693 15.52862915 -45.61962891 14.99194336 C-43.9516626 14.4390564 -43.9516626 14.4390564 -42.25 13.875 C-31.92844302 10.39305524 -21.71472825 6.70568677 -11.56738281 2.74365234 C-10.16117676 2.20345459 -10.16117676 2.20345459 -8.7265625 1.65234375 C-7.90752441 1.33257568 -7.08848633 1.01280762 -6.24462891 0.68334961 C-4 0 -4 0 0 0 Z " fill="#D75F5A" transform="translate(220,166)"/>
<path d="M0 0 C4.33869838 -0.25521755 7.96679682 -0.4006298 12.0625 1.1875 C14 3 14 3 14.3125 5.6875 C14.1578125 6.8321875 14.1578125 6.8321875 14 8 C15.093125 7.9175 16.18625 7.835 17.3125 7.75 C21 8 21 8 22.8125 9.4375 C24.53456133 13.15352709 25.27073655 16.98476126 26 21 C25.34 21 24.68 21 24 21 C24.350625 21.763125 24.70125 22.52625 25.0625 23.3125 C26 26 26 26 25 29 C24.28082397 27.82642944 24.28082397 27.82642944 23.54711914 26.62915039 C21.77219133 23.73425842 19.99602132 20.84013655 18.21899414 17.9465332 C17.44928619 16.69260957 16.68007866 15.43837864 15.91137695 14.18383789 C14.80811019 12.38347157 13.7030645 10.58420829 12.59765625 8.78515625 C11.93258057 7.70113525 11.26750488 6.61711426 10.58227539 5.50024414 C9.22266023 3.14953486 9.22266023 3.14953486 8 2 C6.65252916 1.76924918 5.29622435 1.58846937 3.9375 1.4375 C2.638125 1.293125 1.33875 1.14875 0 1 C0 0.67 0 0.34 0 0 Z " fill="#E35447" transform="translate(38,24)"/>
<path d="M0 0 C0.80824219 0.11085938 1.61648437 0.22171875 2.44921875 0.3359375 C3.37154297 0.47902344 3.37154297 0.47902344 4.3125 0.625 C4.8075 2.11 4.8075 2.11 5.3125 3.625 C4.1059375 3.75777344 2.899375 3.89054687 1.65625 4.02734375 C0.04166336 4.20569925 -1.57291979 4.38408636 -3.1875 4.5625 C-4.37472656 4.69301758 -4.37472656 4.69301758 -5.5859375 4.82617188 C-7.95362741 5.08817035 -10.32061834 5.35580584 -12.6875 5.625 C-13.44281006 5.7082251 -14.19812012 5.7914502 -14.97631836 5.87719727 C-17.93011481 6.21847255 -20.48873555 6.54258547 -23.25 7.6875 C-26.53872057 8.95239253 -29.19948916 8.95405763 -32.6875 8.625 C-33.3475 7.635 -34.0075 6.645 -34.6875 5.625 C-32.3614143 5.24436779 -30.02694736 4.91230055 -27.6875 4.625 C-27.3575 4.955 -27.0275 5.285 -26.6875 5.625 C-26.0275 4.965 -25.3675 4.305 -24.6875 3.625 C-19.16293552 1.00810103 -15.67042351 0.31685043 -9.66796875 1.49609375 C-5.94145385 1.73864797 -4.18543823 -0.60658525 0 0 Z " fill="#F9FBF9" transform="translate(196.6875,67.375)"/>
<path d="M0 0 C3 1 3 1 3.9921875 2.7421875 C4.28351562 3.44601563 4.57484375 4.14984375 4.875 4.875 C6.59629911 8.5978097 8.15446672 10.2908741 12 12 C11.65772428 9.02934491 11.65772428 9.02934491 11 6 C10.34 5.67 9.68 5.34 9 5 C8.67 4.01 8.34 3.02 8 2 C8.66 1.34 9.32 0.68 10 0 C15.39952525 8.96247728 20.75604221 17.94532048 26 27 C25.34 27.66 24.68 28.32 24 29 C23.319375 27.7934375 23.319375 27.7934375 22.625 26.5625 C21.25274335 23.91143428 21.25274335 23.91143428 19 23 C18.731875 21.88625 18.46375 20.7725 18.1875 19.625 C17.34223573 15.86080071 17.34223573 15.86080071 14.375 14.0625 C13.59125 13.711875 12.8075 13.36125 12 13 C12.66 15.31 13.32 17.62 14 20 C13.34 20.66 12.68 21.32 12 22 C10.36915458 19.27428673 8.74638861 16.54384748 7.125 13.8125 C6.66480469 13.04357422 6.20460938 12.27464844 5.73046875 11.48242188 C3.5121088 7.73693007 1.44006471 4.12984076 0 0 Z " fill="#FDEAE4" transform="translate(51,48)"/>
<path d="M0 0 C1.65 0.33 3.3 0.66 5 1 C5.144375 2.093125 5.28875 3.18625 5.4375 4.3125 C5.88288104 7.93122987 5.88288104 7.93122987 7 11 C6.67 11.66 6.34 12.32 6 13 C6.66 13 7.32 13 8 13 C7.67 13.99 7.34 14.98 7 16 C6.34 16 5.68 16 5 16 C4.67 17.65 4.34 19.3 4 21 C2.68 20.67 1.36 20.34 0 20 C-1.87846056 13.43315029 -3.19062647 6.38125295 0 0 Z " fill="#FCF7F7" transform="translate(31,112)"/>
<path d="M0 0 C3.6422829 0.51293131 4.85181214 1.86592632 7.10546875 4.69140625 C7.74548828 5.54992187 7.74548828 5.54992187 8.3984375 6.42578125 C8.84832031 6.998125 9.29820312 7.57046875 9.76171875 8.16015625 C10.86549518 9.56923255 11.94676303 10.99588947 13.0234375 12.42578125 C10.56064949 13.65717525 8.743932 13.49737321 6.0234375 13.42578125 C6.11625 12.28109375 6.11625 12.28109375 6.2109375 11.11328125 C5.98809831 7.91925288 5.29023826 7.50368195 3.0234375 5.42578125 C3.0234375 4.43578125 3.0234375 3.44578125 3.0234375 2.42578125 C-0.39372128 2.90148054 -3.81019357 3.38194487 -7.2265625 3.86328125 C-8.67869141 4.0653418 -8.67869141 4.0653418 -10.16015625 4.27148438 C-11.09472656 4.40361328 -12.02929688 4.53574219 -12.9921875 4.671875 C-13.85102539 4.79232178 -14.70986328 4.91276855 -15.59472656 5.03686523 C-17.96248465 5.37872273 -17.96248465 5.37872273 -20.16308594 6.03540039 C-21.9765625 6.42578125 -21.9765625 6.42578125 -23.9765625 5.42578125 C-23.9765625 6.74578125 -23.9765625 8.06578125 -23.9765625 9.42578125 C-23.3165625 9.42578125 -22.6565625 9.42578125 -21.9765625 9.42578125 C-20.9140625 11.23828125 -20.9140625 11.23828125 -19.9765625 13.42578125 C-20.3065625 14.41578125 -20.6365625 15.40578125 -20.9765625 16.42578125 C-22.14905603 14.97212856 -23.31440066 13.51270706 -24.4765625 12.05078125 C-25.12625 11.23867187 -25.7759375 10.4265625 -26.4453125 9.58984375 C-27.9765625 7.42578125 -27.9765625 7.42578125 -27.9765625 5.42578125 C-21.32269373 3.96872969 -14.66658571 2.52092018 -7.9765625 1.23828125 C-6.7390625 1.00044922 -6.7390625 1.00044922 -5.4765625 0.7578125 C-3.64968946 0.51518092 -1.82434472 0.2609627 0 0 Z " fill="#D56864" transform="translate(196.9765625,71.57421875)"/>
<path d="M0 0 C4.15114242 1.38371414 6.0540532 3.77377267 8.6875 7.1875 C9.96202543 9.91862592 10.22028438 11.49521563 10.4375 14.4375 C10.78676003 18.92586289 12.38257426 21.31924505 15 25 C15.75 28.375 15.75 28.375 16 31 C16.99 31.33 17.98 31.66 19 32 C21.4294516 35.6441774 21.16179575 37.71241272 21 42 C18.24852261 38.62586412 16.3428936 34.95122632 14.4375 31.0625 C14.10105469 30.38243896 13.76460937 29.70237793 13.41796875 29.00170898 C10.40151549 22.87658752 7.44581615 16.72183814 4.5 10.5625 C4.05454834 9.63252197 3.60909668 8.70254395 3.15014648 7.74438477 C2.53441772 6.4497229 2.53441772 6.4497229 1.90625 5.12890625 C1.53822266 4.35619385 1.17019531 3.58348145 0.79101562 2.78735352 C0 1 0 1 0 0 Z " fill="#D75B57" transform="translate(1,41)"/>
<path d="M0 0 C3.89736254 3.42013448 6.02949133 7.30840089 8.4375 11.8125 C11.31603744 17.16266121 14.37907476 22.11462467 18 27 C17.67 27.66 17.34 28.32 17 29 C15.86201908 28.14195022 14.74012608 27.26254933 13.625 26.375 C12.99851562 25.88773438 12.37203125 25.40046875 11.7265625 24.8984375 C9.51142202 22.46278529 8.9883534 20.12459755 8 17 C6.88951398 15.11164995 5.72113016 13.25625954 4.5 11.4375 C2.2200905 8.0321267 0.3957817 4.85933641 -1 1 C-0.67 0.67 -0.34 0.34 0 0 Z M0 17 C0.763125 17.350625 1.52625 17.70125 2.3125 18.0625 C5.04759379 19.32360884 5.04759379 19.32360884 8 18 C8.144375 18.61875 8.28875 19.2375 8.4375 19.875 C8.93152225 22.03258322 8.93152225 22.03258322 10 24 C9.34 24 8.68 24 8 24 C8 25.98 8 27.96 8 30 C5.92980505 27.92980505 4.83063863 26.06171163 3.4375 23.5 C3.00308594 22.7059375 2.56867188 21.911875 2.12109375 21.09375 C1.39562966 19.73887631 0.68731083 18.37462165 0 17 Z " fill="#FCE7E3" transform="translate(77,77)"/>
<path d="M0 0 C0.66 0.33 1.32 0.66 2 1 C1.67 1.66 1.34 2.32 1 3 C2.32 3.66 3.64 4.32 5 5 C1.62950616 8.53099355 -1.15769772 10.21476179 -6 11 C-6 11.99 -6 12.98 -6 14 C-8.31 13.67 -10.62 13.34 -13 13 C-13.28875 13.804375 -13.5775 14.60875 -13.875 15.4375 C-15 18 -15 18 -17 19 C-14.61147427 10.50746407 -6.96599574 4.77668279 0 0 Z " fill="#DE574C" transform="translate(22,4)"/>
<path d="M0 0 C0 0.66 0 1.32 0 2 C0.66 2 1.32 2 2 2 C3.38938077 3.96147874 4.7260411 5.96166576 6 8 C5.01 8.33 4.02 8.66 3 9 C4.65 11.64 6.3 14.28 8 17 C7.34 17.33 6.68 17.66 6 18 C5.45730469 17.30132812 4.91460937 16.60265625 4.35546875 15.8828125 C3.64003906 14.97273438 2.92460937 14.06265625 2.1875 13.125 C1.47980469 12.22007813 0.77210938 11.31515625 0.04296875 10.3828125 C-1.95587741 7.83397044 -1.95587741 7.83397044 -5 6 C-3.68 5.67 -2.36 5.34 -1 5 C-1 4.34 -1 3.68 -1 3 C-2.41623216 2.94552953 -3.83308191 2.90699492 -5.25 2.875 C-6.43335938 2.84019531 -6.43335938 2.84019531 -7.640625 2.8046875 C-10.03112495 2.8486354 -10.03112495 2.8486354 -12.03125 4.0625 C-15.51023228 5.71915823 -18.43943147 4.06817056 -22 3 C-22 2.67 -22 2.34 -22 2 C-14.58856436 0.57374434 -7.55137932 -0.30071865 0 0 Z " fill="#FAE9E4" transform="translate(202,65)"/>
<path d="M0 0 C-7.16442476 3.32815477 -13.73668452 5.60372479 -21.6015625 6.54296875 C-24.17532766 6.80049557 -24.17532766 6.80049557 -26 9 C-27.93966941 9.25438287 -29.88158113 9.50534477 -31.83203125 9.65625 C-34.07290618 9.91241951 -34.07290618 9.91241951 -36.2421875 11.0234375 C-39.93791377 12.33212244 -43.44802487 12.2147912 -47.3125 12.125 C-48.05306641 12.11597656 -48.79363281 12.10695312 -49.55664062 12.09765625 C-51.37123467 12.07424213 -53.18566071 12.03837615 -55 12 C-54.67 11.34 -54.34 10.68 -54 10 C-52.9584375 10.06703125 -51.916875 10.1340625 -50.84375 10.203125 C-44.52256672 10.19757036 -38.57151534 8.35174291 -32.5 6.75 C-30.64109131 6.27336914 -30.64109131 6.27336914 -28.74462891 5.78710938 C-24.21643626 4.62503302 -19.69356652 3.44312165 -15.17089844 2.25976562 C-13.5891827 1.84682063 -12.00688895 1.4360784 -10.42382812 1.02832031 C-8.51758891 0.53676864 -6.61413727 0.03444141 -4.7109375 -0.46875 C-2 -1 -2 -1 0 0 Z " fill="#D75F5C" transform="translate(98,143)"/>
<path d="M0 0 C0.02712066 1.43739513 0.04645067 2.87493863 0.0625 4.3125 C0.07410156 5.11300781 0.08570313 5.91351563 0.09765625 6.73828125 C0 9 0 9 -1 12 C-0.34 12 0.32 12 1 12 C1 12.99 1 13.98 1 15 C1.598125 15.268125 2.19625 15.53625 2.8125 15.8125 C4.97224808 16.98493467 6.35790256 18.19369282 8 20 C5.875 20.8125 5.875 20.8125 3 21 C-2.63333333 17.1 -2.63333333 17.1 -4 13 C-4.66 12.67 -5.32 12.34 -6 12 C-6.22893102 8.96666395 -6.35414522 6.02633186 -6 3 C-3.95583718 0.7514209 -3.03707969 0 0 0 Z " fill="#FDF8FD" transform="translate(43,131)"/>
<path d="M0 0 C4.09688147 3.58955736 6.54765585 7.90802642 9.25 12.5625 C9.70890625 13.33013672 10.1678125 14.09777344 10.640625 14.88867188 C11.07375 15.62794922 11.506875 16.36722656 11.953125 17.12890625 C12.34661133 17.79994385 12.74009766 18.47098145 13.14550781 19.16235352 C14 21 14 21 14 24 C13.01 23.34 12.02 22.68 11 22 C11 21.01 11 20.02 11 19 C10.01 19.33 9.02 19.66 8 20 C8 18.68 8 17.36 8 16 C7.2575 15.95875 6.515 15.9175 5.75 15.875 C3 15 3 15 0.625 12.5 C-1.48528487 7.95477105 -0.98127783 4.79972854 0 0 Z " fill="#EB504A" transform="translate(68,80)"/>
<path d="M0 0 C0.94875 0.86625 1.8975 1.7325 2.875 2.625 C8.77844426 7.67825249 15.4278224 12.00732169 23 14 C23 14.33 23 14.66 23 15 C18.05 15 13.1 15 8 15 C8.33 13.68 8.66 12.36 9 11 C6.69 11.33 4.38 11.66 2 12 C1.87625 10.865625 1.7525 9.73125 1.625 8.5625 C1.41875 7.386875 1.2125 6.21125 1 5 C0.34 4.67 -0.32 4.34 -1 4 C-0.67 2.68 -0.34 1.36 0 0 Z " fill="#FBF1EB" transform="translate(9,205)"/>
<path d="M0 0 C1.39453125 1.49707031 1.39453125 1.49707031 2.8125 3.578125 C3.58980469 4.70154297 3.58980469 4.70154297 4.3828125 5.84765625 C5.18332031 7.03681641 5.18332031 7.03681641 6 8.25 C7.06218303 9.79709267 8.12467341 11.34397437 9.1875 12.890625 C9.65542969 13.58188477 10.12335938 14.27314453 10.60546875 14.98535156 C12.02100682 17.03034809 13.49563495 19.01969645 15 21 C14.67 21.66 14.34 22.32 14 23 C9 17.25 9 17.25 9 15 C8.34 15 7.68 15 7 15 C5.52734375 13.06640625 5.52734375 13.06640625 3.9375 10.5625 C2.16321108 7.6281857 2.16321108 7.6281857 0 5 C-8.42916387 4.5563598 -16.6694232 5.85518454 -25 7 C-22.29718656 5.19812437 -20.70766547 4.50867207 -17.65625 3.7109375 C-16.82222656 3.49179688 -15.98820313 3.27265625 -15.12890625 3.046875 C-14.26136719 2.82515625 -13.39382812 2.6034375 -12.5 2.375 C-11.19869141 2.03082031 -11.19869141 2.03082031 -9.87109375 1.6796875 C-3.40229725 0 -3.40229725 0 0 0 Z " fill="#CC6259" transform="translate(190,118)"/>
<path d="M0 0 C0.66 0 1.32 0 2 0 C2 0.99 2 1.98 2 3 C4.31 3 6.62 3 9 3 C5.53092415 5.31271724 2.16925064 6.14188852 -1.81640625 7.12890625 C-2.58750229 7.32346909 -3.35859833 7.51803192 -4.15306091 7.7184906 C-5.78725921 8.12898571 -7.42221676 8.5364682 -9.05786133 8.94116211 C-11.53131185 9.554763 -14.00102671 10.18195137 -16.47070312 10.81054688 C-24.31622048 12.7816821 -31.89311663 14.53087071 -40 15 C-36.95326843 12.96884562 -34.9011458 12.33544927 -31.37890625 11.4921875 C-29.72858398 11.09580078 -29.72858398 11.09580078 -28.04492188 10.69140625 C-26.89572266 10.42199219 -25.74652344 10.15257813 -24.5625 9.875 C-23.41716797 9.59785156 -22.27183594 9.32070312 -21.09179688 9.03515625 C-12.52509236 7 -12.52509236 7 -8 7 C-8 6.01 -8 5.02 -8 4 C-6.02 4 -4.04 4 -2 4 C-2 3.34 -2 2.68 -2 2 C-1.34 1.34 -0.68 0.68 0 0 Z " fill="#CB514B" transform="translate(152,112)"/>
<path d="M0 0 C1.50920284 4.4068723 0.26725677 7.12344796 -1.5078125 11.2734375 C-6.61689685 20.60888483 -15.27605364 28.75461131 -25.5 31.875 C-26.9956641 32.26693608 -28.49437227 32.64827549 -30 33 C-30.66 32.34 -31.32 31.68 -32 31 C-31.22914063 30.73445313 -30.45828125 30.46890625 -29.6640625 30.1953125 C-28.66117188 29.84210938 -27.65828125 29.48890625 -26.625 29.125 C-25.62726563 28.77695313 -24.62953125 28.42890625 -23.6015625 28.0703125 C-20.89557882 27.15217498 -20.89557882 27.15217498 -19 25 C-18.38511719 24.87367188 -17.77023438 24.74734375 -17.13671875 24.6171875 C-14.24961554 23.78325275 -12.89889199 22.2622796 -10.8125 20.125 C-10.11769531 19.42632812 -9.42289063 18.72765625 -8.70703125 18.0078125 C-6.79751107 16.01515261 -6.79751107 16.01515261 -6 13 C-4.99618527 11.28380063 -3.99235261 9.56761174 -2.98828125 7.8515625 C-1.64478077 5.33449046 -0.79956899 2.7318607 0 0 Z " fill="#C74C47" transform="translate(218,186)"/>
<path d="M0 0 C0.66 0 1.32 0 2 0 C1.67 1.65 1.34 3.3 1 5 C1.66 5 2.32 5 3 5 C4.12377697 8.30435084 3.89554742 10.0506862 2.5625 13.25 C2.27503906 13.95640625 1.98757812 14.6628125 1.69140625 15.390625 C1.46324219 15.92171875 1.23507813 16.4528125 1 17 C0.01 16.67 -0.98 16.34 -2 16 C-3.99186369 10.86308839 -4.1921227 6.47549707 -4 1 C-3.01 1 -2.02 1 -1 1 C-0.67 0.67 -0.34 0.34 0 0 Z " fill="#F7FBFB" transform="translate(25,96)"/>
<path d="M0 0 C0.66 0.33 1.32 0.66 2 1 C2.6328125 3.94140625 2.6328125 3.94140625 3.125 7.5625 C3.29257812 8.76003906 3.46015625 9.95757812 3.6328125 11.19140625 C3.75398438 12.11824219 3.87515625 13.04507813 4 14 C5.32 14.33 6.64 14.66 8 15 C7.67 15.99 7.34 16.98 7 18 C8.65 18 10.3 18 12 18 C12 17.34 12 16.68 12 16 C18.435 15.505 18.435 15.505 25 15 C21.9182501 17.05449993 19.6904243 17.74475809 16.125 18.625 C15.09632812 18.88539063 14.06765625 19.14578125 13.0078125 19.4140625 C10.24120939 19.95301116 7.80715804 20.11394368 5 20 C3.82625827 17.56568361 2.66084237 15.12795818 1.5 12.6875 C1.16613281 11.99720703 0.83226562 11.30691406 0.48828125 10.59570312 C-2 5.33984375 -2 5.33984375 -2 2 C-1.34 2 -0.68 2 0 2 C0 1.34 0 0.68 0 0 Z " fill="#D54F4C" transform="translate(44,122)"/>
<path d="M0 0 C1.58246707 -0.08153933 3.16616273 -0.13943557 4.75 -0.1875 C6.07257813 -0.23970703 6.07257813 -0.23970703 7.421875 -0.29296875 C10.47610949 0.05410335 11.80564299 0.88254802 14 3 C14 3.66 14 4.32 14 5 C17.465 4.505 17.465 4.505 21 4 C21.66 6.31 22.32 8.62 23 11 C23.99 11 24.98 11 26 11 C26 12.65 26 14.3 26 16 C25.0925 15.154375 24.185 14.30875 23.25 13.4375 C16.55457052 7.70828087 8.70130257 2.77981189 0 1 C0 0.67 0 0.34 0 0 Z " fill="#F9E0D7" transform="translate(186,0)"/>
<path d="M0 0 C0.99 0 1.98 0 3 0 C3 0.66 3 1.32 3 2 C3.93513428 1.95456055 3.93513428 1.95456055 4.88916016 1.90820312 C16.59921229 1.34719086 28.27365925 0.81709347 40 1 C40 1.33 40 1.66 40 2 C37.03 2 34.06 2 31 2 C31 2.66 31 3.32 31 4 C27.68812351 4.19977261 24.37550624 4.38251777 21.0625 4.5625 C19.67321289 4.64661133 19.67321289 4.64661133 18.25585938 4.73242188 C12.35623718 5.04292831 6.8537262 4.81051594 1 4 C0.67 2.68 0.34 1.36 0 0 Z " fill="#F8D5CC" transform="translate(1,24)"/>
<path d="M0 0 C4.11139888 2.8890911 5.92649978 5.45804713 8 10 C8.66 10.66 9.32 11.32 10 12 C10 12.99 10 13.98 10 15 C10.66 15 11.32 15 12 15 C12.79953138 18.28696233 13.09658936 19.71023192 12 23 C8.52140651 17.95412813 5.21871489 12.81652036 2.0625 7.5625 C1.45535156 6.55316406 0.84820312 5.54382813 0.22265625 4.50390625 C-0.18082031 3.67761719 -0.58429688 2.85132812 -1 2 C-0.67 1.34 -0.34 0.68 0 0 Z " fill="#EC5348" transform="translate(82,81)"/>
<path d="M0 0 C0 0.66 0 1.32 0 2 C-1.65 2 -3.3 2 -5 2 C-5 2.66 -5 3.32 -5 4 C-8.37097383 5.49821059 -10.20442119 6 -14 6 C-14.33 6.99 -14.66 7.98 -15 9 C-15.33 8.34 -15.66 7.68 -16 7 C-16.66 7 -17.32 7 -18 7 C-18 8.32 -18 9.64 -18 11 C-17.34 11.33 -16.68 11.66 -16 12 C-16.99 12 -17.98 12 -19 12 C-19.33 10.68 -19.66 9.36 -20 8 C-20.66 8 -21.32 8 -22 8 C-22 7.01 -22 6.02 -22 5 C-19.08503169 4.1602972 -16.1682814 3.32803997 -13.25 2.5 C-12.0125 2.14228516 -12.0125 2.14228516 -10.75 1.77734375 C-9.95078125 1.55175781 -9.1515625 1.32617188 -8.328125 1.09375 C-7.5949707 0.88427734 -6.86181641 0.67480469 -6.10644531 0.45898438 C-4 0 -4 0 0 0 Z " fill="#DF605C" transform="translate(220,111)"/>
<path d="M0 0 C3.72406095 4.58157499 6.43388679 9.85205837 9.328125 14.9765625 C9.75609375 15.7190625 10.1840625 16.4615625 10.625 17.2265625 C11.20121094 18.24097412 11.20121094 18.24097412 11.7890625 19.27587891 C13.053211 21.29697189 13.053211 21.29697189 16 23 C18.05709596 23.24055468 18.05709596 23.24055468 20.1875 23.125 C21.445625 23.08375 22.70375 23.0425 24 23 C24 23.66 24 24.32 24 25 C22.23050905 25.10815225 20.45912513 25.18566083 18.6875 25.25 C17.70136719 25.29640625 16.71523437 25.3428125 15.69921875 25.390625 C13 25 13 25 11.14453125 23.109375 C10 21 10 21 10 19 C9.34 19 8.68 19 8 19 C6.5625 16.98828125 6.5625 16.98828125 5 14.3125 C4.484375 13.44238281 3.96875 12.57226562 3.4375 11.67578125 C1.2004391 7.51168692 0 4.78531534 0 0 Z " fill="#CF605A" transform="translate(120,170)"/>
<path d="M0 0 C0.66 0.99 1.32 1.98 2 3 C2.556875 3.433125 3.11375 3.86625 3.6875 4.3125 C5 6 5 6 4.9375 9 C3.88710616 12.36126028 2.98886835 13.26452805 0 15 C0 14.34 0 13.68 0 13 C-0.99 13 -1.98 13 -3 13 C-3.33 10.69 -3.66 8.38 -4 6 C-3.01 6 -2.02 6 -1 6 C-0.67 4.02 -0.34 2.04 0 0 Z " fill="#F9FCF9" transform="translate(15,75)"/>
<path d="M0 0 C0 0.66 0 1.32 0 2 C-0.556875 2.18175781 -1.11375 2.36351563 -1.6875 2.55078125 C-2.450625 2.80214844 -3.21375 3.05351562 -4 3.3125 C-4.83015625 3.58320313 -5.6603125 3.85390625 -6.515625 4.1328125 C-8.93202736 4.93543389 -8.93202736 4.93543389 -10.921875 5.8671875 C-17.14325583 8.65883275 -23.28310947 8.27645738 -30 8 C-30 7.67 -30 7.34 -30 7 C-25.56404241 5.82741384 -21.12599432 4.66294388 -16.6875 3.5 C-15.42486328 3.16613281 -14.16222656 2.83226563 -12.86132812 2.48828125 C-11.04858398 2.01455078 -11.04858398 2.01455078 -9.19921875 1.53125 C-7.52605591 1.09135742 -7.52605591 1.09135742 -5.8190918 0.64257812 C-3 0 -3 0 0 0 Z " fill="#DB5E5A" transform="translate(163,125)"/>
<path d="M0 0 C0.598125 0.825 1.19625 1.65 1.8125 2.5 C2.8953125 3.7375 2.8953125 3.7375 4 5 C4.99 5 5.98 5 7 5 C7.66 4.34 8.32 3.68 9 3 C9.66 4.65 10.32 6.3 11 8 C11.66 8 12.32 8 13 8 C13.33 8.99 13.66 9.98 14 11 C10.125 10.125 10.125 10.125 9 9 C9 11.31 9 13.62 9 16 C5.80750523 13.03352255 3.5407013 9.95036364 1.25 6.25 C0.63640625 5.26515625 0.0228125 4.2803125 -0.609375 3.265625 C-1.06828125 2.51796875 -1.5271875 1.7703125 -2 1 C-1.34 0.67 -0.68 0.34 0 0 Z " fill="#FCEBE6" transform="translate(168,85)"/>
<path d="M0 0 C1.89453125 0.2109375 1.89453125 0.2109375 4 1 C5.01171875 3.0390625 5.01171875 3.0390625 5.6875 5.625 C5.9246875 6.5221875 6.161875 7.419375 6.40625 8.34375 C7.12611741 11.56420947 7.64348355 14.72004869 8 18 C8.99 18.33 9.98 18.66 11 19 C10.34 19.66 9.68 20.32 9 21 C-0.65625 7.21875 -0.65625 7.21875 0 0 Z " fill="#E25154" transform="translate(1,185)"/>
<path d="M0 0 C0.33 0.99 0.66 1.98 1 3 C-0.5778125 3.433125 -0.5778125 3.433125 -2.1875 3.875 C-5.23908108 4.77546655 -8.12466745 5.64690233 -11 7 C-11.33 7.66 -11.66 8.32 -12 9 C-17.62485138 10.62824645 -23.28138062 9.66140616 -29 9 C-25.93297513 7.30688718 -23.06848441 6.44283109 -19.6484375 5.7109375 C-18.63265625 5.49179688 -17.616875 5.27265625 -16.5703125 5.046875 C-14.98863281 4.71429688 -14.98863281 4.71429688 -13.375 4.375 C-12.3128125 4.14554687 -11.250625 3.91609375 -10.15625 3.6796875 C-2.29771205 2 -2.29771205 2 0 2 C0 1.34 0 0.68 0 0 Z " fill="#FDE5DE" transform="translate(183,109)"/>
<path d="M0 0 C-2 3 -2 3 -4.5546875 3.51171875 C-15.04128146 4.06689137 -25.5007843 4.09506332 -36 4 C-36 3.67 -36 3.34 -36 3 C-31.99862104 2.56803948 -27.99675135 2.14097604 -23.99438477 1.71826172 C-22.63552063 1.57406889 -21.27679278 1.42858515 -19.91821289 1.28173828 C-17.95496187 1.06976773 -15.99115489 0.86296696 -14.02734375 0.65625 C-12.25991821 0.46772461 -12.25991821 0.46772461 -10.45678711 0.27539062 C-6.95558925 -0.00353806 -3.51070246 -0.04704459 0 0 Z " fill="#CB5B57" transform="translate(36,32)"/>
<path d="M0 0 C2.3406065 -0.27769908 4.67624308 -0.60539977 7 -1 C4.28256973 1.71743027 1.13057954 2.50932886 -2.4375 3.6875 C-3.4594043 4.04424805 -3.4594043 4.04424805 -4.50195312 4.40820312 C-9.63364573 6.12211809 -9.63364573 6.12211809 -13 5 C-12.34 5 -11.68 5 -11 5 C-9.98888907 1.95086772 -9.98888907 1.95086772 -11 -1 C-6.72305054 -2.37473375 -4.16065329 -1.38688443 0 0 Z " fill="#E24F49" transform="translate(163,171)"/>
<path d="M0 0 C2.8983197 2.57825985 4.67200653 5.54244519 6.625 8.875 C7.23601562 9.90367188 7.84703125 10.93234375 8.4765625 11.9921875 C9.87615905 14.75549351 10.58396434 16.95281993 11 20 C6.05 20.495 6.05 20.495 1 21 C3 19 3 19 6.625 18.875 C8.295625 18.936875 8.295625 18.936875 10 19 C8.39867796 15.8328397 8.39867796 15.8328397 5.98046875 15.59375 C5.32691406 15.3978125 4.67335938 15.201875 4 15 C2.98828125 12.96875 2.98828125 12.96875 2.3125 10.5 C1.63170957 7.48160243 1.63170957 7.48160243 0 5 C-0.04063832 3.33382885 -0.042721 1.66611905 0 0 Z " fill="#D2635B" transform="translate(87,112)"/>
<path d="M0 0 C0.66 0 1.32 0 2 0 C2.33 0.99 2.66 1.98 3 3 C4.30027975 5.69519712 4.30027975 5.69519712 6 8 C6.99 8 7.98 8 9 8 C10.49821059 11.37097383 11 13.20442119 11 17 C8.33518465 16.33379616 6.49966322 15.70931212 4.8828125 13.4140625 C4.2087121 12.17559897 3.55374093 10.92653817 2.91796875 9.66796875 C2.04064496 7.85638013 2.04064496 7.85638013 0.1875 6.375 C-0.204375 5.92125 -0.59625 5.4675 -1 5 C-0.6875 2.3125 -0.6875 2.3125 0 0 Z M3 2 C5 3 5 3 5 3 Z " fill="#F6FAFB" transform="translate(52,43)"/>
<path d="M0 0 C-1.43429001 0.67354499 -2.87257057 1.33859701 -4.3125 2 C-5.11300781 2.37125 -5.91351563 2.7425 -6.73828125 3.125 C-10.33056794 4.51476203 -14.17466882 4 -18 4 C-18.33 5.65 -18.66 7.3 -19 9 C-19.99 8.34 -20.98 7.68 -22 7 C-22 5.68 -22 4.36 -22 3 C-6.76004744 -1.96547635 -6.76004744 -1.96547635 0 0 Z " fill="#FDE5DD" transform="translate(180,69)"/>
<path d="M0 0 C0.33 1.32 0.66 2.64 1 4 C-2.28696233 4.79953138 -3.71023192 5.09658936 -7 4 C-7 4.66 -7 5.32 -7 6 C-7.99 6 -8.98 6 -10 6 C-10.33 6.99 -10.66 7.98 -11 9 C-14.96 9.66 -18.92 10.32 -23 11 C-21.71278515 8.42557031 -20.68184409 8.23902684 -18.0625 7.125 C-17.25683594 6.78082031 -16.45117188 6.43664062 -15.62109375 6.08203125 C-4.6125 1.5375 -4.6125 1.5375 0 0 Z " fill="#FDF4F1" transform="translate(215,155)"/>
<path d="M0 0 C3.9252025 3.70090521 6.94580156 7.54959656 10 12 C9 14 9 14 7.0390625 14.88671875 C6.24242187 15.15097656 5.44578125 15.41523438 4.625 15.6875 C3.83351562 15.95949219 3.04203125 16.23148438 2.2265625 16.51171875 C0 17 0 17 -3 16 C-1.02 15.34 0.96 14.68 3 14 C3 13.34 3 12.68 3 12 C3.66 12 4.32 12 5 12 C4.34 10.02 3.68 8.04 3 6 C2.34 6 1.68 6 1 6 C0.67 4.02 0.34 2.04 0 0 Z " fill="#DA5D56" transform="translate(206,142)"/>
<path d="M0 0 C3.9238497 -0.46712496 6.26151432 -0.18467957 9.375 2.1875 C12 5 12 5 12.375 7.8125 C12.25125 8.534375 12.1275 9.25625 12 10 C9.83125748 9.49396008 8.00032373 9.00016187 6 8 C6 7.34 6 6.68 6 6 C5.01 5.67 4.02 5.34 3 5 C2.01 4.67 1.02 4.34 0 4 C0 2.68 0 1.36 0 0 Z " fill="#F6FBFB" transform="translate(185,109)"/>
<path d="M0 0 C2.58026657 2.5085925 4.84171807 4.74561833 6.75 7.8125 C9.41675584 10.40517929 10.16012492 10.3125 13.75 10.3125 C15.16823316 10.23243845 16.58603027 10.13595863 18 10 C18 10.66 18 11.32 18 12 C12.15154554 13.37610693 7.51398918 13.59481844 2 11 C2.0928125 9.824375 2.0928125 9.824375 2.1875 8.625 C2.125625 7.75875 2.06375 6.8925 2 6 C1.01 5.34 0.02 4.68 -1 4 C-0.67 2.68 -0.34 1.36 0 0 Z " fill="#FCE7E8" transform="translate(182,97)"/>
<path d="M0 0 C0.66 0 1.32 0 2 0 C2.45375 0.969375 2.9075 1.93875 3.375 2.9375 C4.65786221 6.07079582 4.65786221 6.07079582 7 7 C7.061875 8.11375 7.12375 9.2275 7.1875 10.375 C7.56419845 13.96634396 7.56419845 13.96634396 9.6171875 15.12890625 C11.78077616 16.06397908 11.78077616 16.06397908 15 17 C14.34 17.66 13.68 18.32 13 19 C11.68 19 10.36 19 9 19 C7.40234375 16.98828125 7.40234375 16.98828125 5.9375 14.3125 C5.45152344 13.44238281 4.96554688 12.57226562 4.46484375 11.67578125 C3.73974609 10.35126953 3.73974609 10.35126953 3 9 C2.44441406 8.14792969 1.88882813 7.29585937 1.31640625 6.41796875 C0 4 0 4 0 0 Z " fill="#D55852" transform="translate(130,162)"/>
<path d="M0 0 C2.7972908 2.06756277 3.02692273 3.14440371 3.6875 6.6875 C3.790625 7.780625 3.89375 8.87375 4 10 C4.66 10 5.32 10 6 10 C6 11.32 6 12.64 6 14 C6.61875 14.185625 7.2375 14.37125 7.875 14.5625 C11.05602866 16.71437233 11.19451947 19.37533763 12 23 C11.34 23 10.68 23 10 23 C1.55353075 8.40318907 1.55353075 8.40318907 -2 1 C-1.34 0.67 -0.68 0.34 0 0 Z " fill="#DA5857" transform="translate(97,104)"/>
<path d="M0 0 C-0.99 0 -1.98 0 -3 0 C-3 0.66 -3 1.32 -3 2 C-5.64 2.33 -8.28 2.66 -11 3 C-11 3.66 -11 4.32 -11 5 C-12.79008467 5.22151549 -14.58218162 5.42682213 -16.375 5.625 C-17.37273437 5.74101563 -18.37046875 5.85703125 -19.3984375 5.9765625 C-20.25695312 5.98429687 -21.11546875 5.99203125 -22 6 C-22.66 5.34 -23.32 4.68 -24 4 C-20.75393904 3.1303597 -17.50267592 2.28203087 -14.25 1.4375 C-13.32960937 1.19064453 -12.40921875 0.94378906 -11.4609375 0.68945312 C-10.57148438 0.46064453 -9.68203125 0.23183594 -8.765625 -0.00390625 C-7.94868164 -0.21861572 -7.13173828 -0.4333252 -6.29003906 -0.65454102 C-3.85854591 -1.02133876 -2.31574702 -0.76494053 0 0 Z " fill="#FBEDE0" transform="translate(154,119)"/>
<path d="M0 0 C0 0.99 0 1.98 0 3 C-1.65 2.67 -3.3 2.34 -5 2 C-5.33 2.99 -5.66 3.98 -6 5 C-6.66 5 -7.32 5 -8 5 C-8.33 6.32 -8.66 7.64 -9 9 C-9.99 9 -10.98 9 -12 9 C-11.21066812 5.57956185 -10.30480865 2.26202163 -9 -1 C-5.23375329 -2.25541557 -3.62811066 -1.37061958 0 0 Z " fill="#E75648" transform="translate(46,39)"/>
<path d="M0 0 C2.81631641 2.49493496 4.40955981 5.26562818 6.1875 8.5625 C6.71730469 9.53316406 7.24710937 10.50382813 7.79296875 11.50390625 C9 14 9 14 9 16 C8.34 16 7.68 16 7 16 C7 15.34 7 14.68 7 14 C6.01 14.66 5.02 15.32 4 16 C3.01 16 2.02 16 1 16 C1.33 14.68 1.66 13.36 2 12 C2.66 12 3.32 12 4 12 C3.67 10.02 3.34 8.04 3 6 C2.01 6 1.02 6 0 6 C0 4.02 0 2.04 0 0 Z " fill="#DE5C50" transform="translate(105,144)"/>
<path d="M0 0 C3.43919019 3.43919019 5.05905194 8.07701858 7.125 12.4375 C7.59292969 13.40494141 8.06085937 14.37238281 8.54296875 15.36914062 C8.98511719 16.29791016 9.42726563 17.22667969 9.8828125 18.18359375 C10.28902832 19.03493896 10.69524414 19.88628418 11.11376953 20.76342773 C12 23 12 23 12 26 C11.34 26 10.68 26 10 26 C7.3312186 23.3312186 6.67637273 20.68259871 5.4375 17.125 C5.00308594 15.89007813 4.56867187 14.65515625 4.12109375 13.3828125 C3.30527759 10.9211512 2.56493853 8.52635433 2 6 C1.34 6 0.68 6 0 6 C0 4.02 0 2.04 0 0 Z " fill="#CE5755" transform="translate(28,125)"/>
<path d="M0 0 C0.66 0 1.32 0 2 0 C2 0.99 2 1.98 2 3 C1.34 3 0.68 3 0 3 C0 4.65 0 6.3 0 8 C-0.66 8 -1.32 8 -2 8 C-1.34 10.64 -0.68 13.28 0 16 C-0.66 16 -1.32 16 -2 16 C-4.28820274 12.79651616 -5.6884236 9.94663444 -6 6 C-4 3 -4 3 -1 2 C-0.67 1.34 -0.34 0.68 0 0 Z " fill="#F7493E" transform="translate(94,80)"/>
<path d="M0 0 C2.375 0.3125 2.375 0.3125 5 1 C7 4 7 4 6.625 7.1875 C6.41875 8.115625 6.2125 9.04375 6 10 C4.68 10 3.36 10 2 10 C0.68373308 6.38026598 0 3.90432869 0 0 Z " fill="#F5FBFA" transform="translate(68,71)"/>
<path d="M0 0 C3.43202302 2.77729863 4.91022334 6.64061811 6.6875 10.5625 C7.00783203 11.24763672 7.32816406 11.93277344 7.65820312 12.63867188 C10 17.72671242 10 17.72671242 10 20 C9.34 20 8.68 20 8 20 C7.34 18.35 6.68 16.7 6 15 C5.34 15 4.68 15 4 15 C3.79503906 14.36191406 3.59007812 13.72382812 3.37890625 13.06640625 C3.10949219 12.24011719 2.84007812 11.41382813 2.5625 10.5625 C2.29566406 9.73878906 2.02882812 8.91507813 1.75390625 8.06640625 C1.17844506 6.03780412 1.17844506 6.03780412 0 5 C-0.04063832 3.33382885 -0.042721 1.66611905 0 0 Z " fill="#FCECE1" transform="translate(0,41)"/>
<path d="M0 0 C1.98 0.99 3.96 1.98 6 3 C5.938125 3.78375 5.87625 4.5675 5.8125 5.375 C5.874375 6.24125 5.93625 7.1075 6 8 C6.99 8.66 7.98 9.32 9 10 C8.67 11.65 8.34 13.3 8 15 C5.46447088 13.73223544 5.15080425 12.53176935 4 10 C3.67 9.34 3.34 8.68 3 8 C2.34 8 1.68 8 1 8 C0.67 5.36 0.34 2.72 0 0 Z " fill="#F3FBF9" transform="translate(176,93)"/>
<path d="M0 0 C2.3828125 -0.29296875 2.3828125 -0.29296875 5.125 -0.1875 C6.03507813 -0.16042969 6.94515625 -0.13335937 7.8828125 -0.10546875 C8.58148438 -0.07066406 9.28015625 -0.03585938 10 0 C6.66688525 1.7824918 3.75519057 2.48792856 0 3 C1.33488128 6.59391114 2.96022723 9.75490696 5 13 C2.525 12.01 2.525 12.01 0 11 C0 10.34 0 9.68 0 9 C-0.99 8.67 -1.98 8.34 -3 8 C-2.45276317 4.62537285 -1.9451 2.91765 0 0 Z " fill="#CE554E" transform="translate(158,69)"/>
<path d="M0 0 C-2.65897994 1.21269366 -5.31930734 2.4218133 -7.984375 3.62109375 C-9.82022918 4.46054521 -11.64641998 5.32218066 -13.453125 6.22265625 C-18.59899809 8.73261882 -22.27240254 9.41655254 -28 9 C-24.1333738 6.97248835 -20.13772503 5.55249951 -16.03125 4.08984375 C-13.98191072 3.35303233 -11.94024893 2.59456493 -9.90625 1.81640625 C-8.9265625 1.44386719 -7.946875 1.07132813 -6.9375 0.6875 C-6.03902344 0.34074219 -5.14054687 -0.00601563 -4.21484375 -0.36328125 C-2 -1 -2 -1 0 0 Z " fill="#FBD4D0" transform="translate(202,161)"/>
<path d="M0 0 C4.81035973 4.3730543 8.59926143 9.46277438 12 15 C12 15.66 12 16.32 12 17 C10.35 17 8.7 17 7 17 C7.66 16.67 8.32 16.34 9 16 C8.51789063 15.49210937 8.03578125 14.98421875 7.5390625 14.4609375 C0 6.24489796 0 6.24489796 0 0 Z " fill="#D1584E" transform="translate(171,94)"/>
<path d="M0 0 C6.15334773 5.98704104 6.15334773 5.98704104 8 9 C8 10.32 8 11.64 8 13 C4.7 13 1.4 13 -2 13 C-1.01 12.34 -0.02 11.68 1 11 C1 10.34 1 9.68 1 9 C1.99 9 2.98 9 4 9 C4 8.01 4 7.02 4 6 C3.01 6 2.02 6 1 6 C0.67 4.02 0.34 2.04 0 0 Z " fill="#E55750" transform="translate(212,88)"/>
<path d="M0 0 C3.89081843 1.29693948 6.48181674 2.70699112 9 6 C8.75 8.25 8.75 8.25 8 10 C8 9.34 8 8.68 8 8 C7.236875 8.226875 6.47375 8.45375 5.6875 8.6875 C3 9 3 9 1.25 7.875 C-0.27710015 5.58434978 -0.71316466 3.72493577 -1 1 C-0.67 0.67 -0.34 0.34 0 0 Z " fill="#F5FDFC" transform="translate(108,138)"/>
<path d="M0 0 C0.99 0 1.98 0 3 0 C3.66 0.99 4.32 1.98 5 3 C5.66 2.67 6.32 2.34 7 2 C7.19335938 2.54269531 7.38671875 3.08539063 7.5859375 3.64453125 C7.84632813 4.35996094 8.10671875 5.07539063 8.375 5.8125 C8.63023437 6.52019531 8.88546875 7.22789062 9.1484375 7.95703125 C10.0265769 10.24773359 10.0265769 10.24773359 12 13 C11.67 13.99 11.34 14.98 11 16 C10.62488281 15.49210938 10.24976563 14.98421875 9.86328125 14.4609375 C7.36612807 11.10204632 4.86184612 7.79315424 2.125 4.625 C0 2 0 2 0 0 Z " fill="#FCEAE6" transform="translate(205,139)"/>
<path d="M0 0 C2.76100364 1.78356804 4.39025565 3.90733235 6.390625 6.5078125 C7.09703125 7.41789062 7.8034375 8.32796875 8.53125 9.265625 C9.32789063 10.31363281 9.32789063 10.31363281 10.140625 11.3828125 C7.67783699 12.6142065 5.8611195 12.45440446 3.140625 12.3828125 C3.2025 11.6196875 3.264375 10.8565625 3.328125 10.0703125 C3.10528581 6.87628413 2.40742576 6.4607132 0.140625 4.3828125 C0.140625 3.3928125 0.140625 2.4028125 0.140625 1.3828125 C-1.179375 1.0528125 -2.499375 0.7228125 -3.859375 0.3828125 C-1.859375 -0.6171875 -1.859375 -0.6171875 0 0 Z " fill="#D45754" transform="translate(199.859375,72.6171875)"/>
<path d="M0 0 C5.40563021 6.23726563 9.47684044 13.56221871 13 21 C12.34 21.33 11.68 21.66 11 22 C10.54625 21.195625 10.0925 20.39125 9.625 19.5625 C8.25274335 16.91143428 8.25274335 16.91143428 6 16 C5.71125 14.9275 5.4225 13.855 5.125 12.75 C3.96960103 8.8986701 2.48593259 7.06598352 0 4 C0 2.68 0 1.36 0 0 Z " fill="#FCE2DA" transform="translate(64,55)"/>
<path d="M0 0 C1.87109375 0.1953125 1.87109375 0.1953125 4 1 C5.16015625 3.1796875 5.16015625 3.1796875 6.0625 5.875 C7.27238618 9.43715417 8.32289561 11.40379712 11 14 C11.6875 17.1875 11.6875 17.1875 12 20 C9.76523324 17.91903659 8.22297814 15.90570392 6.73828125 13.2421875 C6.14370117 12.18064453 6.14370117 12.18064453 5.53710938 11.09765625 C5.13298828 10.36417969 4.72886719 9.63070312 4.3125 8.875 C3.68891602 7.76318359 3.68891602 7.76318359 3.05273438 6.62890625 C0 1.14501232 0 1.14501232 0 0 Z " fill="#FEE3DC" transform="translate(85,107)"/>
<path d="M0 0 C1.85625 0.061875 1.85625 0.061875 3.75 0.125 C4.08 2.105 4.41 4.085 4.75 6.125 C5.74 6.125 6.73 6.125 7.75 6.125 C7.75 8.435 7.75 10.745 7.75 13.125 C5.64638627 10.58615584 3.87608408 8.4169842 2.5625 5.375 C0.34197129 2.6184816 -0.51892769 2.69174787 -3.9375 2.3125 C-5.3738593 2.22773877 -6.81152439 2.15817239 -8.25 2.125 C-5.3504339 0.46623921 -3.33364791 -0.1111216 0 0 Z " fill="#FCE7E2" transform="translate(40.25,29.875)"/>
<path d="M0 0 C1.98 0.66 3.96 1.32 6 2 C6.33951619 3.56116819 6.67132544 5.12401338 7 6.6875 C7.185625 7.55761719 7.37125 8.42773438 7.5625 9.32421875 C7.98972047 11.93712964 8.07616201 14.35813038 8 17 C6.2623805 14.39357075 4.84362556 11.85376416 3.4375 9.0625 C3.00308594 8.20785156 2.56867187 7.35320312 2.12109375 6.47265625 C1.13538995 4.29861268 0.4809652 2.32916853 0 0 Z " fill="#FCECE3" transform="translate(15,95)"/>
<path d="M0 0 C0.33 1.32 0.66 2.64 1 4 C-5.13104736 8.31960155 -10.59762973 8.75690081 -18 9 C-14.2544157 7.04917485 -10.38527448 5.58408963 -6.4375 4.09765625 C-3.98413861 2.99285729 -2.08204765 1.69166372 0 0 Z " fill="#FDE4DD" transform="translate(204,211)"/>
<path d="M0 0 C2.61715838 2.38923768 4.36199113 4.97100751 6.1875 8 C6.71730469 8.86625 7.24710938 9.7325 7.79296875 10.625 C9 13 9 13 9 16 C8.01 15.34 7.02 14.68 6 14 C6 13.01 6 12.02 6 11 C5.01 11.33 4.02 11.66 3 12 C3 10.68 3 9.36 3 8 C1.68 7.67 0.36 7.34 -1 7 C-0.67 4.69 -0.34 2.38 0 0 Z " fill="#D9574B" transform="translate(73,88)"/>
<path d="M0 0 C4.21877728 1.40625909 6.14844733 3.84432137 8.75 7.375 C10.2145523 10.45055982 10.23485878 12.63369081 10 16 C8 14 8 14 7 11 C6.01 10.67 5.02 10.34 4 10 C2.83203125 7.71484375 2.83203125 7.71484375 1.8125 4.9375 C1.46832031 4.01839844 1.12414062 3.09929688 0.76953125 2.15234375 C0.51558594 1.44207031 0.26164063 0.73179688 0 0 Z " fill="#E45552" transform="translate(1,41)"/>
<path d="M0 0 C1.65 0 3.3 0 5 0 C5 0.33 5 0.66 5 1 C3.35 1 1.7 1 0 1 C0 0.67 0 0.34 0 0 Z M-10 1 C-6.7 1 -3.4 1 0 1 C0.33 1.99 0.66 2.98 1 4 C-1.24512262 5.12256131 -2.51456649 5.13413762 -5 5.125 C-6.051875 5.12886719 -6.051875 5.12886719 -7.125 5.1328125 C-9 5 -9 5 -11 4 C-10.67 3.01 -10.34 2.02 -10 1 Z " fill="#F2FDFC" transform="translate(171,117)"/>
<path d="M0 0 C0.33 0.99 0.66 1.98 1 3 C1.66 3 2.32 3 3 3 C3.33 5.31 3.66 7.62 4 10 C3.67 9.34 3.34 8.68 3 8 C2.34 8 1.68 8 1 8 C0.67 8.99 0.34 9.98 0 11 C-0.99 10.34 -1.98 9.68 -3 9 C-2.30058404 5.85262818 -1.23921302 2.97411124 0 0 Z " fill="#F6FBFA" transform="translate(95,109)"/>
<path d="M0 0 C1.32667306 2.65334611 1.49020734 4.05875595 1 7 C-1.875 9.125 -1.875 9.125 -5 11 C-5.99 12.485 -5.99 12.485 -7 14 C-7.66 12.68 -8.32 11.36 -9 10 C-8.27683594 9.29423828 -8.27683594 9.29423828 -7.5390625 8.57421875 C-6.90742188 7.95160156 -6.27578125 7.32898438 -5.625 6.6875 C-4.68527344 5.76517578 -4.68527344 5.76517578 -3.7265625 4.82421875 C-1.81913393 2.91187472 -1.81913393 2.91187472 0 0 Z " fill="#FBE3E1" transform="translate(214,200)"/>
<path d="M0 0 C4 4.75 4 4.75 4 7 C3.01 7.33 2.02 7.66 1 8 C1.33 10.64 1.66 13.28 2 16 C1.34 16 0.68 16 0 16 C-2.75808668 9.96668538 -2.29200368 6.1597599 0 0 Z " fill="#E5533D" transform="translate(114,160)"/>
<path d="M0 0 C3 0 3 0 4.6875 1.5 C5.120625 1.995 5.55375 2.49 6 3 C6.66 2.34 7.32 1.68 8 1 C8 4.3 8 7.6 8 11 C7.34 11 6.68 11 6 11 C4.4921875 9.1015625 4.4921875 9.1015625 2.875 6.625 C2.33617187 5.81289062 1.79734375 5.00078125 1.2421875 4.1640625 C0 2 0 2 0 0 Z " fill="#E35650" transform="translate(212,135)"/>
<path d="M0 0 C4.28115853 4.77513836 7.03759841 10.36156231 10 16 C6.15625 14.328125 6.15625 14.328125 4.75 11.375 C4.5025 10.59125 4.255 9.8075 4 9 C3.01 9 2.02 9 1 9 C0.67 6.03 0.34 3.06 0 0 Z " fill="#F9E9DE" transform="translate(117,144)"/>
<path d="M0 0 C3.68657504 3.14041578 5.64658186 6.74917923 7.8515625 10.9765625 C8.95849188 13.13577788 8.95849188 13.13577788 11 15 C10.67 15.99 10.34 16.98 10 18 C8.66094733 16.2126038 7.32890934 14.41995047 6 12.625 C5.2575 11.62726563 4.515 10.62953125 3.75 9.6015625 C2 7 2 7 2 5 C1.34 5 0.68 5 0 5 C-0.33 4.01 -0.66 3.02 -1 2 C-0.67 1.34 -0.34 0.68 0 0 Z " fill="#D55C58" transform="translate(179,88)"/>
<path d="M0 0 C1.65 0.33 3.3 0.66 5 1 C0.57763179 5.27495594 -4.19839226 6.51298598 -10 8 C-10.66 7.34 -11.32 6.68 -12 6 C-11.21753906 5.73445312 -10.43507812 5.46890625 -9.62890625 5.1953125 C-8.61699219 4.84210938 -7.60507813 4.48890625 -6.5625 4.125 C-5.55316406 3.77695313 -4.54382813 3.42890625 -3.50390625 3.0703125 C-0.86028249 2.25944907 -0.86028249 2.25944907 0 0 Z " fill="#D4544D" transform="translate(198,211)"/>
<path d="M0 0 C0 0.66 0 1.32 0 2 C-3.08120684 2.5339744 -6.16517859 3.04985551 -9.25 3.5625 C-10.12269531 3.71396484 -10.99539062 3.86542969 -11.89453125 4.02148438 C-12.73886719 4.16005859 -13.58320313 4.29863281 -14.453125 4.44140625 C-15.22817383 4.57232666 -16.00322266 4.70324707 -16.80175781 4.83813477 C-19.11173847 5.00822774 -20.80085213 4.68559092 -23 4 C-15.1977858 1.51394597 -8.26405949 -0.56993514 0 0 Z " fill="#D75C5A" transform="translate(188,120)"/>
<path d="M0 0 C2 3 2 3 3 6 C3.99 6.66 4.98 7.32 6 8 C6.51171875 10.1640625 6.51171875 10.1640625 6.6875 12.625 C6.75324219 13.44226563 6.81898437 14.25953125 6.88671875 15.1015625 C6.92410156 15.72804688 6.96148437 16.35453125 7 17 C4.1641438 14.53113696 2.80399248 11.9005012 1.25 8.5 C0.80140625 7.5409375 0.3528125 6.581875 -0.109375 5.59375 C-1 3 -1 3 0 0 Z " fill="#D25C57" transform="translate(31,99)"/>
<path d="M0 0 C1.4540625 0.0309375 1.4540625 0.0309375 2.9375 0.0625 C0.44686335 1.72292444 -1.31426398 2.61574168 -4.07421875 3.5703125 C-5.21020508 3.96669922 -5.21020508 3.96669922 -6.36914062 4.37109375 C-7.54766602 4.77521484 -7.54766602 4.77521484 -8.75 5.1875 C-9.54728516 5.46464844 -10.34457031 5.74179688 -11.16601562 6.02734375 C-13.13019952 6.7095154 -15.09617973 7.38651098 -17.0625 8.0625 C-17.7225 7.4025 -18.3825 6.7425 -19.0625 6.0625 C-15.5975 5.5675 -15.5975 5.5675 -12.0625 5.0625 C-11.7325 4.0725 -11.4025 3.0825 -11.0625 2.0625 C-9.3609375 1.8459375 -9.3609375 1.8459375 -7.625 1.625 C-3.97252634 1.04829363 -3.54680005 0.07238367 0 0 Z " fill="#FDE7DD" transform="translate(211.0625,166.9375)"/>
<path d="M0 0 C2.3828125 0.2421875 2.3828125 0.2421875 5.125 0.875 C6.03507812 1.07867187 6.94515625 1.28234375 7.8828125 1.4921875 C8.58148438 1.65976563 9.28015625 1.82734375 10 2 C8 4 8 4 4.875 4.125 C3.92625 4.08375 2.9775 4.0425 2 4 C2.33 4.33 2.66 4.66 3 5 C1.68 5.33 0.36 5.66 -1 6 C-1.625 4.125 -1.625 4.125 -2 2 C-1.34 1.34 -0.68 0.68 0 0 Z " fill="#F44A39" transform="translate(111,119)"/>
<path d="M0 0 C-3.4019487 2.09350689 -6.05272412 2.17942163 -10 2 C-10.33 2.99 -10.66 3.98 -11 5 C-13.97 4.67 -16.94 4.34 -20 4 C-16.76538003 1.84358669 -14.32927039 1.18899027 -10.5625 0.3125 C-9.42941406 0.04050781 -8.29632813 -0.23148437 -7.12890625 -0.51171875 C-4.25083111 -0.96085657 -2.68974913 -0.98469931 0 0 Z " fill="#FADAD4" transform="translate(220,103)"/>
<path d="M0 0 C1.16144531 0.00902344 2.32289063 0.01804687 3.51953125 0.02734375 C4.39996094 0.03894531 5.28039062 0.05054687 6.1875 0.0625 C6.1875 0.3925 6.1875 0.7225 6.1875 1.0625 C2.58558863 1.76219035 -1.01929669 2.44514431 -4.625 3.125 C-6.16124023 3.42374023 -6.16124023 3.42374023 -7.72851562 3.72851562 C-9.20288086 4.00405273 -9.20288086 4.00405273 -10.70703125 4.28515625 C-12.06598511 4.54437866 -12.06598511 4.54437866 -13.45239258 4.80883789 C-15.8125 5.0625 -15.8125 5.0625 -18.8125 4.0625 C-12.31428488 1.1319324 -7.21630251 -0.07289194 0 0 Z " fill="#FEE5E0" transform="translate(187.8125,71.9375)"/>
<path d="M0 0 C0.66 0 1.32 0 2 0 C2.66 2.31 3.32 4.62 4 7 C4.99 7 5.98 7 7 7 C7 8.65 7 10.3 7 12 C0.33198187 6.93369902 0.33198187 6.93369902 -1 3.1875 C-1 1 -1 1 0 0 Z " fill="#FCF6ED" transform="translate(205,4)"/>
<path d="M0 0 C0 0.99 0 1.98 0 3 C0.66 3 1.32 3 2 3 C2 3.66 2 4.32 2 5 C1.01 5 0.02 5 -1 5 C-1 4.34 -1 3.68 -1 3 C-2.12148437 3.34224609 -2.12148437 3.34224609 -3.265625 3.69140625 C-4.25046875 3.97886719 -5.2353125 4.26632813 -6.25 4.5625 C-7.22453125 4.85253906 -8.1990625 5.14257812 -9.203125 5.44140625 C-11.96243932 5.99249836 -13.3912824 5.93789609 -16 5 C-13.70967689 4.16280617 -11.41789043 3.3301071 -9.125 2.5 C-8.47402344 2.26152344 -7.82304687 2.02304688 -7.15234375 1.77734375 C-2.2265625 0 -2.2265625 0 0 0 Z " fill="#D9625C" transform="translate(160,187)"/>
<path d="M0 0 C0.99 0.33 1.98 0.66 3 1 C3 1.99 3 2.98 3 4 C3.639375 4.2475 4.27875 4.495 4.9375 4.75 C7 6 7 6 7.75 8.125 C7.8325 8.74375 7.915 9.3625 8 10 C10.31 10 12.62 10 15 10 C15 10.33 15 10.66 15 11 C7.82913165 11.35854342 7.82913165 11.35854342 4.6875 10 C2.18449749 7.03347851 1.15078701 3.67031311 0 0 Z " fill="#FCE1DC" transform="translate(37,143)"/>
<path d="M0 0 C4.43458973 1.3937282 6.87378374 3.60582235 10 7 C7.8125 7.8125 7.8125 7.8125 5 8 C2.1875 5.75 2.1875 5.75 0 3 C0 2.01 0 1.02 0 0 Z " fill="#EEFEFD" transform="translate(41,144)"/>
<path d="M0 0 C3.13969114 2.67598291 4.81843627 6.08594296 6.6875 9.6875 C7.00783203 10.29400391 7.32816406 10.90050781 7.65820312 11.52539062 C8.44371484 13.01434566 9.22252942 14.50683047 10 16 C8.35 15.67 6.7 15.34 5 15 C4.731875 13.9275 4.46375 12.855 4.1875 11.75 C3.11059366 8.34924314 2.08378873 6.74681242 0 4 C0 2.68 0 1.36 0 0 Z " fill="#D05E58" transform="translate(54,55)"/>
<path d="M0 0 C3.69270048 1.23090016 4.67250901 2.97426171 7 6 C7.33 6 7.66 6 8 6 C8 9.3 8 12.6 8 16 C5.9105012 12.8657518 4.43554114 9.73890554 2.875 6.3125 C2.33617187 5.13300781 1.79734375 3.95351563 1.2421875 2.73828125 C0.83226562 1.83464844 0.42234375 0.93101563 0 0 Z " fill="#FAECE1" transform="translate(212,16)"/>
<path d="M0 0 C4.95 0.33 9.9 0.66 15 1 C12 4 12 4 9.1875 4.375 C5.57555854 3.95006571 3.13923072 2.79384613 0 1 C0 0.67 0 0.34 0 0 Z " fill="#E85438" transform="translate(166,162)"/>
<path d="M0 0 C4.21814817 3.9700218 7.61227103 8.30840284 11 13 C10.01 13 9.02 13 8 13 C7.67 12.34 7.34 11.68 7 11 C6.34 11 5.68 11 5 11 C4.731875 10.236875 4.46375 9.47375 4.1875 8.6875 C3.19146475 5.99592628 3.19146475 5.99592628 1.375 4.375 C0.92125 3.92125 0.4675 3.4675 0 3 C0 2.01 0 1.02 0 0 Z " fill="#FBE2DD" transform="translate(205,128)"/>
<path d="M0 0 C4.23733589 -0.24925505 7.94154776 -0.35281741 12 1 C15.05349867 4.05349867 14.79112785 6.75293286 15 11 C11.0617284 6.11111111 11.0617284 6.11111111 9.75 3.75 C6.9296014 0.9296014 3.90025107 1.25575417 0 1 C0 0.67 0 0.34 0 0 Z " fill="#D86766" transform="translate(38,24)"/>
<path d="M0 0 C4.95 0 9.9 0 15 0 C15 0.33 15 0.66 15 1 C13.23050388 1.50471197 11.45934777 2.00360685 9.6875 2.5 C8.20830078 2.91765625 8.20830078 2.91765625 6.69921875 3.34375 C4 4 4 4 1 4 C0.67 2.68 0.34 1.36 0 0 Z " fill="#FBEAE1" transform="translate(73,144)"/>
<path d="M0 0 C1.75 0.125 1.75 0.125 4 1 C8 6.22222222 8 6.22222222 8 9 C6.68 8.34 5.36 7.68 4 7 C4 6.34 4 5.68 4 5 C1.525 4.01 1.525 4.01 -1 3 C-0.67 2.01 -0.34 1.02 0 0 Z " fill="#FEECF0" transform="translate(109,135)"/>
<path d="M0 0 C2.05078125 0.03255208 4.1015625 0.06510417 6.15234375 0.09765625 C3.2261694 2.04843915 1.13189794 2.81279087 -2.22265625 3.72265625 C-3.62644531 4.11324219 -3.62644531 4.11324219 -5.05859375 4.51171875 C-7.7488926 5.07690758 -10.10910196 5.20719842 -12.84765625 5.09765625 C-10.79128013 2.31550032 -9.74973129 2.08077264 -6.22265625 1.47265625 C-5.10890625 1.34890625 -3.99515625 1.22515625 -2.84765625 1.09765625 C-1.84765625 0.09765625 -1.84765625 0.09765625 0 0 Z " fill="#FDE6E1" transform="translate(153.84765625,124.90234375)"/>
<path d="M0 0 C1.49251706 2.98503412 2.60987721 5.61234773 3.625 8.75 C3.88539062 9.54921875 4.14578125 10.3484375 4.4140625 11.171875 C4.60742188 11.77515625 4.80078125 12.3784375 5 13 C3.35 13 1.7 13 0 13 C0 8.71 0 4.42 0 0 Z " fill="#FCE6DF" transform="translate(0,186)"/>
<path d="M0 0 C2.93814003 1.46907001 3.3286226 3.59447806 4.625 6.5625 C5.07101563 7.57441406 5.51703125 8.58632812 5.9765625 9.62890625 C6.31429687 10.41136719 6.65203125 11.19382812 7 12 C6.01 12.495 6.01 12.495 5 13 C4.34 12.01 3.68 11.02 3 10 C2.34 10 1.68 10 1 10 C0.22662374 7.01697727 -0.50652112 4.04311974 -1 1 C-0.67 0.67 -0.34 0.34 0 0 Z " fill="#FBE3DA" transform="translate(36,115)"/>
<path d="M0 0 C3 1 3 1 4.1328125 2.9609375 C4.46023437 3.75757812 4.78765625 4.55421875 5.125 5.375 C5.45757813 6.16648437 5.79015625 6.95796875 6.1328125 7.7734375 C8.0776699 12.76699029 8.0776699 12.76699029 7 16 C5.82845707 13.71070947 4.66261926 11.41881638 3.5 9.125 C3.16613281 8.47402344 2.83226562 7.82304688 2.48828125 7.15234375 C0 2.2265625 0 2.2265625 0 0 Z " fill="#D45E5B" transform="translate(22,84)"/>
<path d="M0 0 C0 0.66 0 1.32 0 2 C-1.65 2 -3.3 2 -5 2 C-5 2.66 -5 3.32 -5 4 C-9.455 4.495 -9.455 4.495 -14 5 C-14 4.34 -14 3.68 -14 3 C-12.4188708 2.49307308 -10.83498617 1.99473557 -9.25 1.5 C-7.92742187 1.08234375 -7.92742187 1.08234375 -6.578125 0.65625 C-4 0 -4 0 0 0 Z " fill="#D2665F" transform="translate(220,111)"/>
<path d="M0 0 C2.33697029 2.33697029 3.27094054 4.49097899 4.625 7.5 C5.29402344 8.96953125 5.29402344 8.96953125 5.9765625 10.46875 C7 13 7 13 7 15 C6.01 14.67 5.02 14.34 4 14 C3.67 12.02 3.34 10.04 3 8 C2.34 8 1.68 8 1 8 C-1.125 3.375 -1.125 3.375 0 0 Z " fill="#FAE8DC" transform="translate(20,81)"/>
<path d="M0 0 C1.27617187 0.02320313 2.55234375 0.04640625 3.8671875 0.0703125 C5.78917969 0.09738281 5.78917969 0.09738281 7.75 0.125 C9.23113281 0.15980469 9.23113281 0.15980469 10.7421875 0.1953125 C10.4121875 1.1853125 10.0821875 2.1753125 9.7421875 3.1953125 C4.7921875 2.8653125 -0.1578125 2.5353125 -5.2578125 2.1953125 C-3.2578125 0.1953125 -3.2578125 0.1953125 0 0 Z " fill="#E8533C" transform="translate(21.2578125,37.8046875)"/>
<path d="M0 0 C3.875 0.875 3.875 0.875 5 2 C5.07205511 3.68608966 5.08386068 5.37500659 5.0625 7.0625 C5.05347656 7.98160156 5.04445313 8.90070312 5.03515625 9.84765625 C5.02355469 10.55792969 5.01195312 11.26820312 5 12 C4.34 12 3.68 12 3 12 C2.86722656 11.38511719 2.73445313 10.77023438 2.59765625 10.13671875 C2.42105469 9.32847656 2.24445312 8.52023438 2.0625 7.6875 C1.88847656 6.88699219 1.71445312 6.08648437 1.53515625 5.26171875 C1.00113841 2.854599 1.00113841 2.854599 0 0 Z " fill="#F8FAFB" transform="translate(45,31)"/>
<path d="M0 0 C3.29967665 2.80472516 5.08459104 6.16918209 7 10 C6.67 10.99 6.34 11.98 6 13 C0 5.8 0 5.8 0 0 Z " fill="#FCDEDA" transform="translate(127,161)"/>
<path d="M0 0 C-3.34520258 1.93242285 -6.44767482 2.5463853 -10.25 3.125 C-11.32765625 3.29257813 -12.4053125 3.46015625 -13.515625 3.6328125 C-14.33546875 3.75398437 -15.1553125 3.87515625 -16 4 C-15.67 3.01 -15.34 2.02 -15 1 C-9.91913204 0.15318867 -5.15171623 -0.09038099 0 0 Z " fill="#FCE3DD" transform="translate(104,140)"/>
<path d="M0 0 C-0.66 1.32 -1.32 2.64 -2 4 C-5.96 4 -9.92 4 -14 4 C-9.2157506 0.8105004 -5.77575443 -0.26863974 0 0 Z " fill="#DF655B" transform="translate(38,0)"/>
<path d="M0 0 C0.33 0 0.66 0 1 0 C1.02698189 1.62490954 1.04638757 3.24994633 1.0625 4.875 C1.07410156 5.77992188 1.08570313 6.68484375 1.09765625 7.6171875 C1 10 1 10 0 12 C-0.66 12 -1.32 12 -2 12 C-2 12.66 -2 13.32 -2 14 C-2.66 14 -3.32 14 -4 14 C-3.79503906 13.32453125 -3.59007812 12.6490625 -3.37890625 11.953125 C-3.10949219 11.06109375 -2.84007812 10.1690625 -2.5625 9.25 C-2.16224609 7.92742187 -2.16224609 7.92742187 -1.75390625 6.578125 C-1.11531506 4.39434165 -0.53224167 2.21164502 0 0 Z " fill="#FDE1DD" transform="translate(219,186)"/>
<path d="M0 0 C0.99 0 1.98 0 3 0 C3 0.66 3 1.32 3 2 C4.65 2 6.3 2 8 2 C8 2.66 8 3.32 8 4 C4.7 4.33 1.4 4.66 -2 5 C-2 3 -2 3 0 1 C0 0.67 0 0.34 0 0 Z " fill="#E34D4E" transform="translate(80,130)"/>
<path d="M0 0 C1.32 0 2.64 0 4 0 C4 1.32 4 2.64 4 4 C4.66 4 5.32 4 6 4 C7.0625 5.8125 7.0625 5.8125 8 8 C7.67 8.99 7.34 9.98 7 11 C5.82750647 9.54634731 4.66216184 8.08692581 3.5 6.625 C2.52546875 5.40683594 2.52546875 5.40683594 1.53125 4.1640625 C0 2 0 2 0 0 Z " fill="#D05B55" transform="translate(169,77)"/>
<path d="M0 0 C-8.25 4.125 -8.25 4.125 -12.125 3.0625 C-12.84945312 2.86785156 -13.57390625 2.67320313 -14.3203125 2.47265625 C-14.87460938 2.31667969 -15.42890625 2.16070312 -16 2 C-16 1.67 -16 1.34 -16 1 C-14.0852312 0.63571223 -12.16807707 0.28394694 -10.25 -0.0625 C-9.18265625 -0.25972656 -8.1153125 -0.45695312 -7.015625 -0.66015625 C-4.25228095 -0.97156937 -2.59053383 -0.8991416 0 0 Z " fill="#FAD5D0" transform="translate(196,66)"/>
<path d="M0 0 C0.33 1.32 0.66 2.64 1 4 C-3.40914783 5.10228696 -7.48382401 5.07654536 -12 5 C-9.3139714 3.20931427 -7.3373411 2.33944209 -4.3125 1.375 C-3.50425781 1.11460937 -2.69601563 0.85421875 -1.86328125 0.5859375 C-1.24839844 0.39257812 -0.63351563 0.19921875 0 0 Z " fill="#FAD4D3" transform="translate(215,155)"/>
<path d="M0 0 C1.32 1.32 2.64 2.64 4 4 C3 6 3 6 1.0390625 6.88671875 C0.24242187 7.15097656 -0.55421875 7.41523438 -1.375 7.6875 C-2.16648438 7.95949219 -2.95796875 8.23148438 -3.7734375 8.51171875 C-6 9 -6 9 -9 8 C-7.70990357 7.49596232 -6.41786211 6.99690074 -5.125 6.5 C-4.04605469 6.08234375 -4.04605469 6.08234375 -2.9453125 5.65625 C-1 5 -1 5 1 5 C0.67 3.35 0.34 1.7 0 0 Z " fill="#C85652" transform="translate(212,150)"/>
<path d="M0 0 C1.70840281 1.63412443 2.93453047 2.86906094 4 5 C6.64 5 9.28 5 12 5 C11.67 5.66 11.34 6.32 11 7 C3.61538462 7.49230769 3.61538462 7.49230769 0.5 5 C0.005 4.34 -0.49 3.68 -1 3 C-0.67 2.01 -0.34 1.02 0 0 Z " fill="#FDDFDE" transform="translate(104,122)"/>
<path d="M0 0 C0.598125 0.763125 1.19625 1.52625 1.8125 2.3125 C3.80400177 4.92207348 3.80400177 4.92207348 5.75 6.5 C7.53030442 8.6363653 7.21811874 10.30986889 7 13 C3.02502456 9.59287819 1.13206212 5.67239145 -1 1 C-0.67 0.67 -0.34 0.34 0 0 Z " fill="#FEE2DD" transform="translate(127,179)"/>
<path d="M0 0 C0.66 0 1.32 0 2 0 C2 0.99 2 1.98 2 3 C6.29 3 10.58 3 15 3 C15 3.33 15 3.66 15 4 C13.25021843 4.16894443 11.50016388 4.33506309 9.75 4.5 C8.77546875 4.5928125 7.8009375 4.685625 6.796875 4.78125 C4.53697847 4.95800168 2.26679807 5 0 5 C0 3.35 0 1.7 0 0 Z " fill="#E5504C" transform="translate(41,152)"/>
<path d="M0 0 C2.31 0 4.62 0 7 0 C7 1.32 7 2.64 7 4 C5.02 4 3.04 4 1 4 C0.67 2.68 0.34 1.36 0 0 Z " fill="#E65440" transform="translate(89,146)"/>
<path d="M0 0 C1.32 0.33 2.64 0.66 4 1 C4 1.66 4 2.32 4 3 C4.66 3.33 5.32 3.66 6 4 C6.625 6.5625 6.625 6.5625 7 9 C6.01 9.495 6.01 9.495 5 10 C3.35 6.7 1.7 3.4 0 0 Z " fill="#FCECE0" transform="translate(104,141)"/>
<path d="M0 0 C4.24404412 3.88026891 7.10917547 8.04254346 10 13 C9.01 13 8.02 13 7 13 C4 8.77777778 4 8.77777778 4 6 C2.68 5.34 1.36 4.68 0 4 C0 2.68 0 1.36 0 0 Z " fill="#FDE4E3" transform="translate(208,73)"/>
<path d="M0 0 C0.66 0 1.32 0 2 0 C2 0.66 2 1.32 2 2 C3.65 1.67 5.3 1.34 7 1 C7 1.66 7 2.32 7 3 C6.34 3 5.68 3 5 3 C5.350625 3.763125 5.70125 4.52625 6.0625 5.3125 C7 8 7 8 6 11 C4.99735282 9.35577799 3.99794896 7.70957779 3 6.0625 C2.443125 5.14597656 1.88625 4.22945312 1.3125 3.28515625 C0 1 0 1 0 0 Z " fill="#D65D52" transform="translate(57,42)"/>
<path d="M0 0 C4.50884026 2.31883213 6.93906776 5.06451569 10 9 C9.01 9 8.02 9 7 9 C6.67 8.34 6.34 7.68 6 7 C3.97536745 6.34786708 3.97536745 6.34786708 2 6 C2 4.68 2 3.36 2 2 C1.01 1.67 0.02 1.34 -1 1 C-0.67 0.67 -0.34 0.34 0 0 Z " fill="#D55A57" transform="translate(201,7)"/>
<path d="M0 0 C-0.99 0 -1.98 0 -3 0 C-3 0.66 -3 1.32 -3 2 C-4.41543415 2.19658808 -5.83244031 2.38187546 -7.25 2.5625 C-8.03890625 2.66691406 -8.8278125 2.77132812 -9.640625 2.87890625 C-12.00532874 3.00027349 -13.7511037 2.69633257 -16 2 C-14.08654673 1.46748234 -12.1690705 0.94940517 -10.25 0.4375 C-9.18265625 0.14746094 -8.1153125 -0.14257812 -7.015625 -0.44140625 C-4.15664073 -0.97098494 -2.68402617 -0.98370862 0 0 Z " fill="#FBD6CC" transform="translate(154,119)"/>
<path d="M0 0 C1.60379341 -0.05416188 3.20811406 -0.09286638 4.8125 -0.125 C5.70582031 -0.14820312 6.59914062 -0.17140625 7.51953125 -0.1953125 C10 0 10 0 13 2 C4.57142857 3.28571429 4.57142857 3.28571429 0 2 C0 1.34 0 0.68 0 0 Z " fill="#E35341" transform="translate(136,114)"/>
<path d="M0 0 C0.556875 0.61875 1.11375 1.2375 1.6875 1.875 C4.06645178 4.06106379 5.96357096 4.98785699 9 6 C8.34 6.66 7.68 7.32 7 8 C5.68 8 4.36 8 3 8 C1.02 4.535 1.02 4.535 -1 1 C-0.67 0.67 -0.34 0.34 0 0 Z " fill="#D06462" transform="translate(136,173)"/>
<path d="M0 0 C2.64 0.33 5.28 0.66 8 1 C7.67 1.66 7.34 2.32 7 3 C4.71484375 3.6328125 4.71484375 3.6328125 1.9375 4.125 C1.01839844 4.29257813 0.09929687 4.46015625 -0.84765625 4.6328125 C-1.91306641 4.81457031 -1.91306641 4.81457031 -3 5 C-2.34 4.67 -1.68 4.34 -1 4 C-0.34786708 1.97536745 -0.34786708 1.97536745 0 0 Z " fill="#D74C43" transform="translate(153,172)"/>
<path d="M0 0 C0.99 0 1.98 0 3 0 C3.268125 0.763125 3.53625 1.52625 3.8125 2.3125 C4.95800967 4.90496926 5.99711522 6.08815544 8 8 C8 8.66 8 9.32 8 10 C4.13698083 8.53471687 2.95419158 6.55307561 1 3 C0.34 2.34 -0.32 1.68 -1 1 C-0.67 0.67 -0.34 0.34 0 0 Z " fill="#F6FBF8" transform="translate(205,73)"/>
<path d="M0 0 C2.27528469 1.80126705 2.94682181 2.6366157 3.375 5.5625 C3.189375 6.7690625 3.189375 6.7690625 3 8 C2.01 8.66 1.02 9.32 0 10 C0.33 8.68 0.66 7.36 1 6 C0.34 6 -0.32 6 -1 6 C-1.042721 4.33388095 -1.04063832 2.66617115 -1 1 C-0.67 0.67 -0.34 0.34 0 0 Z " fill="#F4F5E9" transform="translate(53,37)"/>
<path d="M0 0 C4.72224516 1.53472968 9.35855331 3.23945126 14 5 C12.328125 6.17578125 12.328125 6.17578125 10 7 C7.421875 5.91796875 7.421875 5.91796875 4.75 4.1875 C3.85796875 3.62417969 2.9659375 3.06085938 2.046875 2.48046875 C1.37140625 1.99191406 0.6959375 1.50335938 0 1 C0 0.67 0 0.34 0 0 Z " fill="#D75F5F" transform="translate(16,211)"/>
<path d="M0 0 C1.98 0.99 1.98 0.99 4 2 C4 3.65 4 5.3 4 7 C3.34 7 2.68 7 2 7 C2 7.99 2 8.98 2 10 C1.34 10 0.68 10 0 10 C0 6.7 0 3.4 0 0 Z " fill="#F2FCF3" transform="translate(42,133)"/>
<path d="M0 0 C1.50433594 0.01353516 1.50433594 0.01353516 3.0390625 0.02734375 C3.80992187 0.03894531 4.58078125 0.05054687 5.375 0.0625 C5.375 0.3925 5.375 0.7225 5.375 1.0625 C-3.05357143 3.34821429 -3.05357143 3.34821429 -7.625 3.0625 C-7.625 2.4025 -7.625 1.7425 -7.625 1.0625 C-4.98041621 -0.25979189 -2.94738699 -0.03427194 0 0 Z " fill="#FCE3DD" transform="translate(167.625,121.9375)"/>
<path d="M0 0 C0.66 0 1.32 0 2 0 C2 0.99 2 1.98 2 3 C4.31 3 6.62 3 9 3 C5.91111478 5.05925681 5.29064073 5.2390374 1.8125 5.125 C-0.0746875 5.063125 -0.0746875 5.063125 -2 5 C-2 2 -2 2 0 0 Z " fill="#DB4A41" transform="translate(152,112)"/>
<path d="M0 0 C2.40072955 2.88087546 4.47291037 5.56404834 6 9 C3.525 8.01 3.525 8.01 1 7 C1 6.34 1 5.68 1 5 C0.01 4.67 -0.98 4.34 -2 4 C-1.34 2.68 -0.68 1.36 0 0 Z " fill="#D85A52" transform="translate(157,73)"/>
<path d="M0 0 C2.63249349 2.45699392 4.78137264 4.56568654 6 8 C5.67 8.99 5.34 9.98 5 11 C3.02 8.03 1.04 5.06 -1 2 C-0.67 1.34 -0.34 0.68 0 0 Z " fill="#D15F59" transform="translate(65,53)"/>
<path d="M0 0 C1.98 1.65 3.96 3.3 6 5 C4.02 5.99 4.02 5.99 2 7 C1.67 6.34 1.34 5.68 1 5 C0.34 4.67 -0.32 4.34 -1 4 C-0.67 2.68 -0.34 1.36 0 0 Z " fill="#FAE3D9" transform="translate(9,205)"/>
<path d="M0 0 C0.33 0 0.66 0 1 0 C1 1.65 1 3.3 1 5 C1.66 5 2.32 5 3 5 C3.33 6.32 3.66 7.64 4 9 C1.03 8.505 1.03 8.505 -2 8 C-1.47731534 5.23723823 -0.89130413 2.6739124 0 0 Z " fill="#EC554E" transform="translate(27,126)"/>
<path d="M0 0 C0.94875 0.04125 1.8975 0.0825 2.875 0.125 C2.875 1.115 2.875 2.105 2.875 3.125 C-0.74826739 4.3327558 -1.76646369 3.66811128 -5.125 2.125 C-3.125 0.125 -3.125 0.125 0 0 Z " fill="#E75240" transform="translate(77.125,129.875)"/>
<path d="M0 0 C0.66 0.33 1.32 0.66 2 1 C2 3.31 2 5.62 2 8 C1.01 7.67 0.02 7.34 -1 7 C-1.33 5.35 -1.66 3.7 -2 2 C-1.34 2 -0.68 2 0 2 C0 1.34 0 0.68 0 0 Z " fill="#E45151" transform="translate(44,122)"/>
<path d="M0 0 C1.0725 0.165 2.145 0.33 3.25 0.5 C7.03028752 1.08810915 7.03028752 1.08810915 11 1 C11 1.66 11 2.32 11 3 C7.26562152 3.87867729 3.83225427 4.08912219 0 4 C-0.33 3.34 -0.66 2.68 -1 2 C-0.67 1.34 -0.34 0.68 0 0 Z " fill="#F6DBD2" transform="translate(189,106)"/>
<path d="M0 0 C3.69496329 1.23165443 4.35395945 2.88224921 6.1484375 6.2109375 C7.05420937 8.1138894 7.66653644 9.91585276 8 12 C4.02502456 8.59287819 2.13206212 4.67239145 0 0 Z " fill="#D35E56" transform="translate(87,92)"/>
<path d="M0 0 C2.64 0 5.28 0 8 0 C7.01 0.495 7.01 0.495 6 1 C6 1.66 6 2.32 6 3 C3.69 3 1.38 3 -1 3 C-0.67 2.01 -0.34 1.02 0 0 Z " fill="#EFFDF8" transform="translate(58,146)"/>
<path d="M0 0 C1.32 0.33 2.64 0.66 4 1 C7 6.03571429 7 6.03571429 7 9 C6.34 9 5.68 9 5 9 C3.35 6.03 1.7 3.06 0 0 Z " fill="#D45F5E" transform="translate(102,118)"/>
<path d="M0 0 C0.99 0.33 1.98 0.66 3 1 C4.6900877 4.80269732 5.19873962 7.05272168 4 11 C3.32880451 9.5437455 2.66318193 8.08492133 2 6.625 C1.62875 5.81289062 1.2575 5.00078125 0.875 4.1640625 C0 2 0 2 0 0 Z " fill="#FEE6E0" transform="translate(25,116)"/>
<path d="M0 0 C0.66 0 1.32 0 2 0 C3.6875 2.375 3.6875 2.375 5 5 C4.67 5.66 4.34 6.32 4 7 C2.68 7 1.36 7 0 7 C0 4.69 0 2.38 0 0 Z " fill="#DC554F" transform="translate(82,105)"/>
<path d="M0 0 C2.8290723 2.8290723 3.37611108 3.38144425 4 7 C2.68 7 1.36 7 0 7 C-0.33 7.99 -0.66 8.98 -1 10 C-0.67 6.7 -0.34 3.4 0 0 Z " fill="#E55C58" transform="translate(18,104)"/>
<path d="M0 0 C2.96404505 2.80804268 5.44499019 5.18315774 7 9 C5.02 8.34 3.04 7.68 1 7 C0.67 4.69 0.34 2.38 0 0 Z " fill="#D26460" transform="translate(171,94)"/>
<path d="M0 0 C2.5 1.5625 2.5 1.5625 5 4 C5.3125 7.75 5.3125 7.75 5 11 C2.25722422 7.80009492 0.3697164 4.99500618 -1 1 C-0.67 0.67 -0.34 0.34 0 0 Z " fill="#D25F58" transform="translate(82,81)"/>
<path d="M0 0 C4.875 4.625 4.875 4.625 6 8 C1.3697479 6.53781513 1.3697479 6.53781513 -0.375 4 C-1 2 -1 2 0 0 Z " fill="#F9DEDA" transform="translate(170,80)"/>
<path d="M0 0 C1.51953125 1.23828125 1.51953125 1.23828125 3 3 C3.10118893 5.78535848 2.49854208 8.23535757 2 11 C0 9 0 9 -0.1953125 6.8359375 C-0.17210937 6.02382812 -0.14890625 5.21171875 -0.125 4.375 C-0.10695312 3.55773437 -0.08890625 2.74046875 -0.0703125 1.8984375 C-0.04710937 1.27195312 -0.02390625 0.64546875 0 0 Z " fill="#DC574C" transform="translate(64,72)"/>
<path d="M0 0 C2.31 0 4.62 0 7 0 C6.01 1.485 6.01 1.485 5 3 C2.1796875 3.29296875 2.1796875 3.29296875 -1.125 3.1875 C-2.76855469 3.14689453 -2.76855469 3.14689453 -4.4453125 3.10546875 C-5.28835937 3.07066406 -6.13140625 3.03585938 -7 3 C-7 2.67 -7 2.34 -7 2 C-3.535 1.505 -3.535 1.505 0 1 C0 0.67 0 0.34 0 0 Z " fill="#E3635D" transform="translate(29,32)"/>
<path d="M0 0 C3.3 0 6.6 0 10 0 C8.68 0.33 7.36 0.66 6 1 C6 1.66 6 2.32 6 3 C4.02 3 2.04 3 0 3 C0 2.01 0 1.02 0 0 Z " fill="#ECFCF8" transform="translate(90,138)"/>
<path d="M0 0 C0.66 0 1.32 0 2 0 C2 0.66 2 1.32 2 2 C2.99 2.33 3.98 2.66 5 3 C5 4.32 5 5.64 5 7 C3.68 6.67 2.36 6.34 1 6 C0.67 4.02 0.34 2.04 0 0 Z " fill="#F6FCFA" transform="translate(196,121)"/>
<path d="M0 0 C-3.00440021 2.00293347 -4.70993945 2.49271626 -8.1875 3.125 C-9.08855469 3.29257813 -9.98960937 3.46015625 -10.91796875 3.6328125 C-11.60503906 3.75398438 -12.29210937 3.87515625 -13 4 C-10.19339204 -1.61321593 -5.44395698 -1.1741868 0 0 Z " fill="#FEE3E1" transform="translate(187,118)"/>
<path d="M0 0 C3.48331435 3.01887244 4.79157144 5.56909529 6 10 C3.13367003 8.94901234 2.16993357 8.33137046 0.75 5.5625 C0 3 0 3 0 0 Z " fill="#FDE1DA" transform="translate(98,112)"/>
<path d="M0 0 C2.27521866 2.16687491 4.15794162 4.45620509 6 7 C5.67 7.66 5.34 8.32 5 9 C4.01 8.34 3.02 7.68 2 7 C2 6.01 2 5.02 2 4 C1.01 4.33 0.02 4.66 -1 5 C-0.67 3.35 -0.34 1.7 0 0 Z " fill="#DB665B" transform="translate(77,95)"/>
<path d="M0 0 C1.5 1.375 1.5 1.375 3 3 C3 3.66 3 4.32 3 5 C3.66 5 4.32 5 5 5 C5.33 5.99 5.66 6.98 6 8 C3.13275314 7.42655063 2.1385485 7.1385485 0 5 C-0.125 2.375 -0.125 2.375 0 0 Z " fill="#FCDAD6" transform="translate(176,88)"/>
<path d="M0 0 C4.875 1.875 4.875 1.875 6 3 C6.04063832 4.66617115 6.042721 6.33388095 6 8 C1.125 3.375 1.125 3.375 0 0 Z " fill="#FBE4E3" transform="translate(214,89)"/>
<path d="M0 0 C2.475 0.495 2.475 0.495 5 1 C5 2.65 5 4.3 5 6 C2.5 4.6875 2.5 4.6875 0 3 C0 2.01 0 1.02 0 0 Z " fill="#F2F9FC" transform="translate(215,86)"/>
<path d="M0 0 C1.875 0.25 1.875 0.25 4 1 C5.25 3.0625 5.25 3.0625 6 5 C3.69 5 1.38 5 -1 5 C-0.67 3.35 -0.34 1.7 0 0 Z " fill="#DC5E4E" transform="translate(204,80)"/>
<path d="M0 0 C-1.17578125 1.51953125 -1.17578125 1.51953125 -3 3 C-5.48046875 3.07421875 -5.48046875 3.07421875 -8.1875 2.6875 C-9.53908203 2.50767578 -9.53908203 2.50767578 -10.91796875 2.32421875 C-11.94857422 2.16373047 -11.94857422 2.16373047 -13 2 C-13 1.67 -13 1.34 -13 1 C-8.59085217 -0.10228696 -4.51617599 -0.07654536 0 0 Z " fill="#E5534D" transform="translate(192,75)"/>
<path d="M0 0 C2.4375 1.5625 2.4375 1.5625 5 4 C5.8125 7.75 5.8125 7.75 6 11 C2.90407165 7.4912812 1.25805377 4.50802601 0 0 Z " fill="#D55D58" transform="translate(71,64)"/>
<path d="M0 0 C2.95183101 2.95183101 3.08663988 5.95511947 4 10 C3.01 10.33 2.02 10.66 1 11 C0.67 7.37 0.34 3.74 0 0 Z " fill="#D86761" transform="translate(216,24)"/>
<path d="M0 0 C-2.6855594 2.6855594 -5.37621328 3.06049974 -9 4 C-9.66 3.34 -10.32 2.68 -11 2 C-7.36576791 -0.32590854 -4.22911669 -0.16265833 0 0 Z " fill="#FCEDE7" transform="translate(32,0)"/>
<path d="M0 0 C2.31 0 4.62 0 7 0 C7 1.32 7 2.64 7 4 C4.97954558 3.39816251 2.97888961 2.72693904 1 2 C0.67 1.34 0.34 0.68 0 0 Z " fill="#E0564C" transform="translate(130,133)"/>
<path d="M0 0 C1.65 0 3.3 0 5 0 C5 1.32 5 2.64 5 4 C2.03 3.505 2.03 3.505 -1 3 C-0.67 2.01 -0.34 1.02 0 0 Z " fill="#FA463E" transform="translate(195,74)"/>
<path d="M0 0 C1.32 0.33 2.64 0.66 4 1 C6.08878929 4.68024779 6.06126775 5.75492899 5 10 C3.35 6.7 1.7 3.4 0 0 Z " fill="#FBE2DF" transform="translate(64,71)"/>
<path d="M0 0 C0.99 0.99 1.98 1.98 3 3 C2.6875 6.1875 2.6875 6.1875 2 9 C1.34 9 0.68 9 0 9 C0 6.03 0 3.06 0 0 Z " fill="#F94A42" transform="translate(0,69)"/>
<path d="M0 0 C3.96 0 7.92 0 12 0 C12 0.33 12 0.66 12 1 C10.96939453 1.05607422 10.96939453 1.05607422 9.91796875 1.11328125 C9.01691406 1.17902344 8.11585938 1.24476562 7.1875 1.3125 C6.29417969 1.37050781 5.40085938 1.42851563 4.48046875 1.48828125 C1.69396 2.06313581 0.75864246 2.8206856 -1 5 C-0.67 3.35 -0.34 1.7 0 0 Z " fill="#F65050" transform="translate(156,68)"/>
<path d="M0 0 C1.98 0.99 1.98 0.99 4 2 C4 3.98 4 5.96 4 8 C3.67 7.34 3.34 6.68 3 6 C2.34 6 1.68 6 1 6 C0.67 4.02 0.34 2.04 0 0 Z " fill="#F44A4C" transform="translate(56,36)"/>
<path d="M0 0 C2.50037734 2.17424117 3.43628586 3.73045798 4 7 C2.02 6.34 0.04 5.68 -2 5 C-1.34 3.35 -0.68 1.7 0 0 Z " fill="#E05551" transform="translate(211,16)"/>
<path d="M0 0 C3.2542015 2.83430453 4.5206753 4.68607774 5 9 C4.01 9 3.02 9 2 9 C1.34 6.03 0.68 3.06 0 0 Z " fill="#EEFDF7" transform="translate(212,8)"/>
<path d="M0 0 C3.10551666 3.10551666 3.81323934 4.89198233 5 9 C4.01 9 3.02 9 2 9 C1.34 6.03 0.68 3.06 0 0 Z " fill="#FBE0D6" transform="translate(15,72)"/>
<path d="M0 0 C0.6875 1.6875 0.6875 1.6875 1 4 C-0.25 6.75 -0.25 6.75 -2 9 C-2.99 9 -3.98 9 -5 9 C-5 6 -5 6 -3.0625 3.9375 C-2.381875 3.298125 -1.70125 2.65875 -1 2 C-0.67 1.34 -0.34 0.68 0 0 Z " fill="#E7514D" transform="translate(9,17)"/>
<path d="M0 0 C1.485 0.99 1.485 0.99 3 2 C3.1875 5.125 3.1875 5.125 3 8 C2.34 8 1.68 8 1 8 C0.67 5.36 0.34 2.72 0 0 Z " fill="#D15D56" transform="translate(1,185)"/>
<path d="M0 0 C-5.17578125 3.22265625 -5.17578125 3.22265625 -7 4 C-7.99 3.67 -8.98 3.34 -10 3 C-7.28464405 0.28464405 -3.67870689 -1.83935344 0 0 Z " fill="#FBCFCD" transform="translate(155,177)"/>
<path d="M0 0 C4 4.75 4 4.75 4 7 C3.01 7 2.02 7 1 7 C0.34 5.02 -0.32 3.04 -1 1 C-0.67 0.67 -0.34 0.34 0 0 Z " fill="#D95E5A" transform="translate(114,160)"/>
<path d="M0 0 C2.72426311 2.35277269 3.8141763 4.62496331 5 8 C4.34 8 3.68 8 3 8 C3 7.34 3 6.68 3 6 C2.01 6 1.02 6 0 6 C0 4.02 0 2.04 0 0 Z " fill="#D3615C" transform="translate(105,144)"/>
<path d="M0 0 C1.98 0.99 1.98 0.99 4 2 C4 2.66 4 3.32 4 4 C4.66 4 5.32 4 6 4 C6 4.66 6 5.32 6 6 C4.68 6 3.36 6 2 6 C1.34 4.02 0.68 2.04 0 0 Z " fill="#FCF0F4" transform="translate(214,142)"/>
<path d="M0 0 C2.475 0.495 2.475 0.495 5 1 C5 2.65 5 4.3 5 6 C4.34 6 3.68 6 3 6 C2.01 4.02 1.02 2.04 0 0 Z " fill="#DE646B" transform="translate(215,140)"/>
<path d="M0 0 C0 0.33 0 0.66 0 1 C-2.64 1.33 -5.28 1.66 -8 2 C-8 2.66 -8 3.32 -8 4 C-9.32 3.67 -10.64 3.34 -12 3 C-8.48214012 -0.51785988 -4.80656342 -0.10924008 0 0 Z " fill="#E1514A" transform="translate(120,124)"/>
<path d="M0 0 C1.875 0.125 1.875 0.125 4 1 C5.25 4.0625 5.25 4.0625 6 7 C3.00675737 5.9024777 2.15389099 5.32317108 0.75 2.375 C0.5025 1.59125 0.255 0.8075 0 0 Z " fill="#FDEAE5" transform="translate(85,107)"/>
<path d="M0 0 C3.3 0 6.6 0 10 0 C6.39338934 1.80330533 3.91606575 2.46599103 0 3 C0 2.01 0 1.02 0 0 Z " fill="#D74E49" transform="translate(210,101)"/>
<path d="M0 0 C0 0.66 0 1.32 0 2 C-2.70879335 3.35439668 -5.00933268 3.06501451 -8 3 C-6.23110084 -0.53779831 -3.70375662 0 0 0 Z " fill="#F5FDFB" transform="translate(185,174)"/>
<path d="M0 0 C-0.33 0.99 -0.66 1.98 -1 3 C-3.5625 4.1875 -3.5625 4.1875 -6 5 C-6 3.68 -6 2.36 -6 1 C-3 0 -3 0 0 0 Z " fill="#E9514D" transform="translate(208,154)"/>
<path d="M0 0 C2.475 0.99 2.475 0.99 5 2 C4.67 3.32 4.34 4.64 4 6 C4 5.34 4 4.68 4 4 C2.35 3.67 0.7 3.34 -1 3 C-0.67 2.01 -0.34 1.02 0 0 Z " fill="#E7FBF7" transform="translate(112,142)"/>
<path d="M0 0 C1.9451 2.91765 2.45276317 4.62537285 3 8 C2.01 7.67 1.02 7.34 0 7 C-0.38133299 5.0085944 -0.71325582 3.00720923 -1 1 C-0.67 0.67 -0.34 0.34 0 0 Z " fill="#DC5751" transform="translate(15,96)"/>
<path d="M0 0 C1.37562854 1.28965176 2.70766393 2.62689293 4 4 C4 4.66 4 5.32 4 6 C3.01 6.33 2.02 6.66 1 7 C0.67 4.69 0.34 2.38 0 0 Z " fill="#D75A51" transform="translate(68,80)"/>
<path d="M0 0 C0.66 0 1.32 0 2 0 C2.185625 0.9590625 2.185625 0.9590625 2.375 1.9375 C2.684375 2.9584375 2.684375 2.9584375 3 4 C3.66 4.33 4.32 4.66 5 5 C5 5.99 5 6.98 5 8 C4.34 8 3.68 8 3 8 C1.02 4.535 1.02 4.535 -1 1 C-0.67 0.67 -0.34 0.34 0 0 Z " fill="#DF6D72" transform="translate(215,79)"/>
<path d="M0 0 C2.50037734 2.17424117 3.43628586 3.73045798 4 7 C3.01 7.495 3.01 7.495 2 8 C-0.1519437 4.77208445 -0.20086443 3.71599191 0 0 Z " fill="#FBDBD3" transform="translate(0,41)"/>
<path d="M0 0 C4.42857143 5.14285714 4.42857143 5.14285714 5 9 C4.34 9 3.68 9 3 9 C-0.22265625 3.7265625 -0.22265625 3.7265625 -1 2 C-0.67 1.34 -0.34 0.68 0 0 Z " fill="#FEE5DF" transform="translate(48,28)"/>
<path d="M0 0 C0.99 0 1.98 0 3 0 C3 1.32 3 2.64 3 4 C1.35 4 -0.3 4 -2 4 C-1.34 2.68 -0.68 1.36 0 0 Z " fill="#E65347" transform="translate(13,21)"/>
<path d="M0 0 C1 3 1 3 -0.3125 5.6875 C-0.869375 6.450625 -1.42625 7.21375 -2 8 C-2.66 8 -3.32 8 -4 8 C-2.25 2.25 -2.25 2.25 0 0 Z " fill="#FCE2DF" transform="translate(7,15)"/>
<path d="M0 0 C2.97 0.495 2.97 0.495 6 1 C6 2.65 6 4.3 6 6 C3.97945196 4.35830472 1.97956942 2.69088222 0 1 C0 0.67 0 0.34 0 0 Z " fill="#FDDAD2" transform="translate(206,10)"/>
</svg>
