<?xml version="1.0" encoding="UTF-8"?>
<svg version="1.1" xmlns="http://www.w3.org/2000/svg" width="1200" height="648">
<path d="M0 0 C0.90234375 -0.00708984 1.8046875 -0.01417969 2.734375 -0.02148438 C11.47428211 0.06132816 17.86280902 3.55954882 25.3125 7.75 C26.46878906 8.39642456 26.46878906 8.39642456 27.6484375 9.0559082 C36.17188938 13.84530045 44.60272062 18.79379881 53.0390625 23.734375 C59.42782035 27.47384615 65.83619232 31.17869496 72.25 34.875 C73.32813965 35.49648926 74.4062793 36.11797852 75.51708984 36.75830078 C78.80278559 38.65184377 82.08882874 40.54478237 85.375 42.4375 C99.05054314 50.31412589 112.71460958 58.20870092 126.34082031 66.17041016 C136.90120282 72.33669054 147.49626766 78.4424595 158.09277344 84.54638672 C164.60371257 88.29778024 171.11163194 92.05440994 177.62011719 95.81005859 C183.06085336 98.94932246 188.50231477 102.08731497 193.9453125 105.22265625 C205.41783217 111.83301282 216.87472312 118.46861939 228.30566406 125.15063477 C233.63033401 128.26080213 238.96192524 131.35851355 244.3046875 134.4375 C244.88583313 134.77241455 245.46697876 135.1073291 246.06573486 135.45239258 C248.86711183 137.06623886 251.66940788 138.67846889 254.47265625 140.2890625 C281.41001875 155.78914181 281.41001875 155.78914181 284.93365264 167.25541395 C286.53113377 173.81472121 286.65539925 180.12714934 286.62896729 186.8551178 C286.63208727 188.0822288 286.63520725 189.30933981 286.63842177 190.573636 C286.64499254 193.95840823 286.64266333 197.34295675 286.63644934 200.72771513 C286.63190904 204.38623848 286.63891638 208.04474281 286.64440918 211.70326233 C286.65328776 218.86160316 286.6513881 226.01990197 286.6455839 233.17824442 C286.64106172 238.99699613 286.64045691 244.81573609 286.64263153 250.63448906 C286.642938 251.46356824 286.64324446 252.29264742 286.64356022 253.14685021 C286.64419968 254.83125056 286.64484811 256.5156509 286.6455054 258.20005124 C286.6512041 273.98263951 286.64465783 289.76520452 286.63390467 305.54778897 C286.62496792 319.08338463 286.62652311 332.61894598 286.63574219 346.15454102 C286.64645008 361.88334592 286.65065656 377.61213047 286.64451766 393.34093851 C286.64388058 395.01873457 286.64325184 396.69653064 286.64263153 398.37432671 C286.64232298 399.1997792 286.64201443 400.02523169 286.64169653 400.8756979 C286.63997127 406.68646026 286.64288101 412.49720969 286.64759064 418.30797005 C286.65320516 425.3906782 286.65167092 432.47334203 286.64102915 439.55604512 C286.6357804 443.16817385 286.63370212 446.78022873 286.64032745 450.39235687 C286.64740542 454.31056811 286.63894217 458.22865895 286.62896729 462.14686584 C286.63342873 463.28470852 286.63789017 464.4225512 286.64248681 465.59487396 C286.59102536 476.00850643 284.70652535 483.98221922 278.375 492.4375 C271.78446101 498.66691356 264.12254019 503.16341997 256.25 507.5625 C254.52166759 508.54365799 252.79334452 509.52483314 251.06573486 510.50726318 C249.89119101 511.17458712 248.71601852 511.84080582 247.54022217 512.50592041 C241.78583025 515.76106969 236.07879255 519.09476586 230.375 522.4375 C216.64561635 530.46215046 202.8642032 538.39609246 189.08398438 546.33300781 C185.80568938 548.22148493 182.52771515 550.11051666 179.25 552 C177.63158203 552.93295898 177.63158203 552.93295898 175.98046875 553.88476562 C167.81869456 558.59423701 159.6809253 563.34390379 151.54760742 568.10229492 C143.32940735 572.90111158 135.06327175 577.61403422 126.79171753 582.31994629 C117.99247445 587.32990462 109.26060295 592.44129467 100.5625 597.625 C91.39379973 603.08894795 82.16695461 608.42619696 72.859375 613.6496582 C66.05527339 617.47284238 59.29861433 621.37084599 52.5625 625.3125 C51.58804932 625.88202393 50.61359863 626.45154785 49.60961914 627.03833008 C44.12436392 630.2444352 44.12436392 630.2444352 38.64044189 633.45281982 C35.05218107 635.55292169 31.46105225 637.64797178 27.86611938 639.7366333 C26.15893832 640.73024721 24.45480164 641.72908596 22.75073242 642.72802734 C21.71408447 643.32953613 20.67743652 643.93104492 19.609375 644.55078125 C18.69381836 645.08485596 17.77826172 645.61893066 16.83496094 646.16918945 C8.6642373 650.38186405 -4.06659344 650.14935527 -12.78564453 647.87353516 C-16.90590382 646.32285527 -20.63099345 644.12309935 -24.37060547 641.81982422 C-26.89884463 640.26958704 -29.46231118 638.79139672 -32.03515625 637.31640625 C-36.10823955 634.97313711 -40.16509529 632.60483795 -44.2109375 630.21484375 C-50.656298 626.41016737 -57.13715988 622.66914739 -63.625 618.9375 C-71.97331523 614.12956002 -80.30743573 609.2984409 -88.625 604.4375 C-100.17222486 597.69036886 -111.75402119 591.0041063 -123.34277344 584.32861328 C-128.77159942 581.20069852 -134.19819281 578.06891552 -139.625 574.9375 C-141.79165583 573.68748121 -143.9583225 572.43748122 -146.125 571.1875 C-150.45833333 568.6875 -154.79166667 566.1875 -159.125 563.6875 C-160.19766113 563.06866943 -161.27032227 562.44983887 -162.37548828 561.81225586 C-164.54057071 560.56314482 -166.70560982 559.31395871 -168.87060547 558.06469727 C-174.31115706 554.92547691 -179.75247216 551.78759437 -185.1953125 548.65234375 C-196.67436999 542.03822015 -208.13702075 535.39754216 -219.57543945 528.71337891 C-227.01583918 524.36850377 -234.47345346 520.05410512 -241.9375 515.75 C-243.02200439 515.12287109 -244.10650879 514.49574219 -245.22387695 513.84960938 C-250.21339336 510.96669364 -255.21027899 508.10132981 -260.2421875 505.29296875 C-261.10416748 504.80723389 -261.96614746 504.32149902 -262.85424805 503.82104492 C-264.42329313 502.93796036 -265.99724455 502.06349972 -267.57739258 501.20043945 C-276.02836237 496.41923839 -282.32337852 490.10319404 -285.16202134 480.6489169 C-285.6957492 478.09956655 -285.75420594 475.76585984 -285.75922108 473.16029835 C-285.76367892 472.08499861 -285.76813676 471.00969886 -285.77272969 469.90181428 C-285.77254533 468.72119265 -285.77236097 467.54057102 -285.77217102 466.32417297 C-285.77584771 465.06937124 -285.7795244 463.81456951 -285.7833125 462.52174348 C-285.79332283 459.03647006 -285.79704773 455.55121386 -285.79970181 452.0659281 C-285.8036077 448.30777419 -285.81318579 444.54963387 -285.82191467 440.79148865 C-285.84167033 431.71480261 -285.85174384 422.63811548 -285.86064246 413.56141332 C-285.86502655 409.28640135 -285.87039303 405.01139062 -285.87563133 400.73637962 C-285.89264218 386.5244704 -285.90713647 372.31256195 -285.91438007 358.10064411 C-285.91628994 354.41320609 -285.91821028 350.72576808 -285.92016602 347.03833008 C-285.92064976 346.12184353 -285.9211335 345.20535698 -285.9216319 344.26109811 C-285.92993267 329.41378265 -285.95527101 314.56654775 -285.98774669 299.71926747 C-286.02082072 284.47409845 -286.03882912 269.22897038 -286.04202431 253.9837653 C-286.04418902 245.42484395 -286.05293193 236.86604008 -286.07848549 228.3071537 C-286.10019712 221.01828465 -286.10824062 213.72956164 -286.09851871 206.44066391 C-286.09397541 202.72304277 -286.09586164 199.00572293 -286.11528015 195.28814316 C-286.13617091 191.25379882 -286.12592221 187.22012202 -286.11274719 183.18574524 C-286.12371644 182.01627722 -286.13468568 180.84680919 -286.14598733 179.64190274 C-286.05839177 168.53191428 -282.6225852 161.69433946 -275.015625 153.70703125 C-268.66029934 147.67362568 -260.86454368 143.8500314 -253.23852539 139.66088867 C-246.80781295 136.12344764 -240.45758088 132.45990288 -234.125 128.75 C-225.64257699 123.78150065 -217.14432993 118.84247242 -208.625 113.9375 C-200.27691088 109.12916435 -191.94256695 104.29844247 -183.625 99.4375 C-169.89453183 91.41468322 -156.11421914 83.47891672 -142.33398438 75.54199219 C-130.74818234 68.86793688 -119.16946647 62.18285916 -107.625 55.4375 C-93.89444812 47.41482489 -80.11422034 39.47891741 -66.33398438 31.54199219 C-63.05568947 29.65351511 -59.7778261 27.76429063 -56.5 25.875 C-55.43483154 25.26172852 -54.36966309 24.64845703 -53.2722168 24.01660156 C-47.8246098 20.87625043 -42.38943684 17.71670483 -36.97265625 14.5234375 C-35.35738037 13.57319702 -35.35738037 13.57319702 -33.70947266 12.60375977 C-31.6793453 11.40789033 -29.6514966 10.20814009 -27.62646484 9.00366211 C-18.19348162 3.45081348 -11.11860204 -0.24832613 0 0 Z " fill="#8AC400" transform="translate(599.625,-0.4375)"/>
<path d="M0 0 C3.83575227 0.524509 6.92341215 2.47833322 10.26171875 4.34375 C10.8529805 4.67290405 11.44424225 5.00205811 12.05342102 5.34118652 C13.2976617 6.03500004 14.54065682 6.73105142 15.7824707 7.42919922 C17.68883004 8.50074761 19.598917 9.56538783 21.50976562 10.62890625 C30.84035381 15.84035381 30.84035381 15.84035381 32 17 C32.11375434 18.74491437 32.15743438 20.49442663 32.17408752 22.2429657 C32.18702347 23.37999435 32.19995941 24.51702301 32.21328735 25.68850708 C32.22226044 26.94718597 32.23123352 28.20586487 32.24047852 29.50268555 C32.25347488 30.81967941 32.26647125 32.13667328 32.27986145 33.49357605 C32.39588764 45.65124216 32.45241426 57.80973587 32.49662876 69.96785259 C32.52986627 78.95725078 32.58940228 87.94564076 32.68413979 96.93460625 C32.74847508 103.25227652 32.78216631 109.56967215 32.79337829 115.88765746 C32.80093989 119.66214311 32.82212358 123.43541226 32.87640572 127.20953941 C32.92691142 130.76322859 32.93943117 134.31505967 32.92315483 137.86905098 C32.92404472 139.79085115 32.96462657 141.7125053 33.00646973 143.6338501 C32.91711316 151.90076088 32.91711316 151.90076088 30.27256203 155.07048321 C28.24391439 156.62093191 26.2667902 157.83324369 24 159 C22.91493164 159.67281006 21.82986328 160.34562012 20.71191406 161.03881836 C19.65713867 161.63315674 18.60236328 162.22749512 17.515625 162.83984375 C16.64306061 163.33491173 16.64306061 163.33491173 15.75286865 163.83998108 C13.92146857 164.87770395 12.08596139 165.907873 10.25 166.9375 C8.43639679 167.96123768 6.62369514 168.98654999 4.81140137 170.01260376 C3.61912483 170.68632389 2.42552757 171.35771236 1.23059082 172.02670288 C-1.66684658 173.65324752 -4.52310329 175.3217984 -7.35351562 177.06298828 C-8.91875977 178.02374268 -8.91875977 178.02374268 -10.515625 179.00390625 C-11.43118164 179.58084229 -12.34673828 180.15777832 -13.29003906 180.75219727 C-16.45583845 182.20989102 -18.55064381 182.3366382 -22 182 C-24.953125 180.55859375 -24.953125 180.55859375 -28.25 178.4375 C-29.55395065 177.61524727 -30.86013213 176.79652648 -32.16796875 175.98046875 C-32.91095215 175.51560059 -33.65393555 175.05073242 -34.41943359 174.57177734 C-37.43218102 172.73676619 -40.48579195 170.98462767 -43.55078125 169.23828125 C-44.12567291 168.91069321 -44.70056458 168.58310516 -45.2928772 168.24559021 C-48.18779078 166.59727604 -51.08579525 164.95481642 -53.98730469 163.31811523 C-55.0652832 162.70266846 -56.14326172 162.08722168 -57.25390625 161.453125 C-58.21627197 160.90817383 -59.1786377 160.36322266 -60.17016602 159.80175781 C-61.57093384 158.9098877 -61.57093384 158.9098877 -63 158 C-64.09352783 157.36811768 -65.18705566 156.73623535 -66.3137207 156.08520508 C-68.45332204 154.2301327 -68.9605755 153.19070934 -69.54133606 150.38137817 C-69.76395887 146.96695946 -69.77871148 143.60494057 -69.7265625 140.18359375 C-69.72755951 138.93498062 -69.72855652 137.68636749 -69.72958374 136.3999176 C-69.72490473 133.76185063 -69.70865019 131.12700773 -69.67236328 128.48950195 C-69.62693797 125.11417751 -69.62591181 121.74064228 -69.63939857 118.36509609 C-69.6476977 115.1377943 -69.6237305 111.91080882 -69.6015625 108.68359375 C-69.60338531 107.47311874 -69.60520813 106.26264374 -69.60708618 105.01548767 C-69.58802216 103.89074539 -69.56895813 102.76600311 -69.54931641 101.60717773 C-69.54010162 100.61854233 -69.53088684 99.62990692 -69.52139282 98.61131287 C-68.85977861 95.29772351 -67.56295648 94.12774991 -65 92 C-63.27441406 90.85009766 -63.27441406 90.85009766 -61.515625 89.9140625 C-60.50109253 89.36383423 -60.50109253 89.36383423 -59.46606445 88.80249023 C-58.73476318 88.41391846 -58.00346191 88.02534668 -57.25 87.625 C-51.6733327 84.6124919 -46.16088113 81.52682297 -40.72265625 78.26953125 C-39.65950195 77.63515137 -38.59634766 77.00077148 -37.50097656 76.34716797 C-35.40768926 75.09343954 -33.31958901 73.83100134 -31.23730469 72.55908203 C-21.65316036 66.84588658 -21.65316036 66.84588658 -16 67 C-13.015625 68.21484375 -13.015625 68.21484375 -10.25 69.9375 C-6.40970332 72.42838245 -6.40970332 72.42838245 -2 73 C-1.98969254 72.10019913 -1.97938507 71.20039825 -1.96876526 70.27333069 C-1.87096659 61.81179214 -1.7684778 53.3503264 -1.66066074 44.88890934 C-1.60539215 40.53835194 -1.55196601 36.18778788 -1.50268555 31.8371582 C-1.45509986 27.6420379 -1.40275942 23.44700188 -1.34705925 19.25198174 C-1.32660934 17.64795455 -1.30790071 16.04390423 -1.29092598 14.4398365 C-1.26694003 12.20077231 -1.23687806 9.96186884 -1.20532227 7.72290039 C-1.18977798 6.44604874 -1.1742337 5.16919708 -1.15821838 3.85365295 C-1 1 -1 1 0 0 Z " fill="#666860" transform="translate(686,216)"/>
<path d="M0 0 C2.75048828 1.18652344 2.75048828 1.18652344 5.5703125 2.859375 C7.1490918 3.78327026 7.1490918 3.78327026 8.75976562 4.72583008 C9.87029297 5.39380615 10.98082031 6.06178223 12.125 6.75 C13.27997526 7.43294065 14.43558098 8.11481615 15.59179688 8.7956543 C17.93476364 10.17870481 20.27270723 11.56969615 22.60644531 12.96826172 C25.75968972 14.85612502 28.92113322 16.72925888 32.0859375 18.59765625 C33.89123803 19.66823777 35.69596192 20.73979249 37.5 21.8125 C38.33547363 22.30911133 39.17094727 22.80572266 40.03173828 23.31738281 C40.79470215 23.7759668 41.55766602 24.23455078 42.34375 24.70703125 C43.00568359 25.1038208 43.66761719 25.50061035 44.34960938 25.90942383 C46 27 46 27 48 29 C48.27415466 31.33283997 48.27415466 31.33283997 48.30639648 34.28833008 C48.32238388 35.39320267 48.33837128 36.49807526 48.35484314 37.63642883 C48.36020584 38.83535263 48.36556854 40.03427643 48.37109375 41.26953125 C48.38012222 42.4978215 48.3891507 43.72611176 48.39845276 44.99162292 C48.41298462 47.5950577 48.42184924 50.19852924 48.42553711 52.80200195 C48.4319698 56.78578228 48.48657347 60.76849086 48.53710938 64.75195312 C48.54657442 67.27863825 48.55380906 69.80533292 48.55859375 72.33203125 C48.57812607 73.52488235 48.59765839 74.71773346 48.61778259 75.94673157 C48.57278955 84.1960392 48.57278955 84.1960392 45.7956543 88.09399414 C43.13692011 89.90665136 40.5372225 91.62470591 37.7109375 93.1640625 C36.18774902 94.00396729 36.18774902 94.00396729 34.63378906 94.86083984 C33.55838867 95.4430127 32.48298828 96.02518555 31.375 96.625 C29.12675792 97.85783301 26.87937094 99.0922266 24.6328125 100.328125 C23.51680664 100.94107422 22.40080078 101.55402344 21.25097656 102.18554688 C18.23997004 103.86606659 15.26647608 105.59387545 12.3046875 107.359375 C11.44568848 107.87032715 10.58668945 108.3812793 9.70166016 108.90771484 C8.10514629 109.86320661 6.5133825 110.82669503 4.92724609 111.79931641 C4.21391113 112.22390137 3.50057617 112.64848633 2.765625 113.0859375 C1.84958496 113.6435376 1.84958496 113.6435376 0.91503906 114.21240234 C-1.59194897 115.24345071 -3.30472763 115.29566987 -6 115 C-8.42163086 113.92114258 -8.42163086 113.92114258 -10.96484375 112.39453125 C-11.91987793 111.82903564 -12.87491211 111.26354004 -13.85888672 110.6809082 C-15.38280029 109.75604614 -15.38280029 109.75604614 -16.9375 108.8125 C-19.08463133 107.53124314 -21.23176684 106.24999332 -23.37890625 104.96875 C-24.47219238 104.31132812 -25.56547852 103.65390625 -26.69189453 102.9765625 C-29.91392063 101.05143163 -33.15336375 99.16046846 -36.40234375 97.28125 C-37.40724854 96.69754639 -38.41215332 96.11384277 -39.44750977 95.51245117 C-41.36890873 94.39672263 -43.29250992 93.28477621 -45.21850586 92.17700195 C-46.0822583 91.67128662 -46.94601074 91.16557129 -47.8359375 90.64453125 C-48.59438965 90.20471924 -49.3528418 89.76490723 -50.13427734 89.31176758 C-52 88 -52 88 -54 85 C-54.28088379 82.54690552 -54.28088379 82.54690552 -54.32226562 79.59814453 C-54.34148071 78.49334747 -54.3606958 77.38855042 -54.38049316 76.25027466 C-54.38899292 75.05651215 -54.39749268 73.86274963 -54.40625 72.6328125 C-54.41765015 71.40593719 -54.42905029 70.17906189 -54.4407959 68.91500854 C-54.45970069 66.31756036 -54.47276578 63.72006415 -54.48046875 61.12255859 C-54.49989123 57.14726236 -54.56193122 53.17402976 -54.625 49.19921875 C-54.63805917 46.67709563 -54.64856047 44.15495771 -54.65625 41.6328125 C-54.6809436 40.44309845 -54.70563721 39.2533844 -54.7310791 38.02761841 C-54.68794722 30.04322695 -54.68794722 30.04322695 -52.83850098 27.23866272 C-51.34765625 25.94213867 -51.34765625 25.94213867 -48 24 C-47.00033203 23.36989014 -46.00066406 22.73978027 -44.97070312 22.09057617 C-43.91818359 21.49736572 -42.86566406 20.90415527 -41.78125 20.29296875 C-41.20145386 19.96388016 -40.62165771 19.63479156 -40.02429199 19.29573059 C-38.18600547 18.2539702 -36.34320001 17.22053689 -34.5 16.1875 C-32.69488341 15.16786227 -30.89072671 14.14654196 -29.08666992 13.12503052 C-27.88384955 12.44577045 -26.67958165 11.76906722 -25.47387695 11.09494019 C-22.34725502 9.34460639 -19.25002423 7.55962113 -16.18359375 5.70556641 C-15.56061401 5.33418045 -14.93763428 4.96279449 -14.29577637 4.58015442 C-12.57143593 3.54964873 -10.85479063 2.5062982 -9.13867188 1.4621582 C-5.66911868 -0.1541419 -3.7750375 -0.50874407 0 0 Z " fill="#FDFEFC" transform="translate(535,282)"/>
<path d="M0 0 C3.8374298 1.89834557 7.47194215 4.08351555 11.125 6.3125 C13.25322141 7.5857808 15.38214264 8.85789251 17.51171875 10.12890625 C18.58599121 10.77359863 19.66026367 11.41829102 20.76708984 12.08251953 C26.6708441 15.58411188 32.66526395 18.92860575 38.66259766 22.2668457 C39.48421387 22.73050537 40.30583008 23.19416504 41.15234375 23.671875 C41.87413818 24.0750293 42.59593262 24.47818359 43.33959961 24.89355469 C45 26 45 26 46 28 C46.17724777 30.80690726 46.27750799 33.56630797 46.3125 36.375 C46.35600586 37.52742188 46.35600586 37.52742188 46.40039062 38.703125 C46.40876953 39.44820313 46.41714844 40.19328125 46.42578125 40.9609375 C46.44036377 41.63946777 46.45494629 42.31799805 46.4699707 43.01708984 C45.55636696 46.87178576 42.44251209 48.69567236 39.31445312 50.84692383 C36.62702622 52.49498449 33.93951938 54.14245491 31.23681641 55.76538086 C29.49716718 56.8142079 27.77023648 57.88210935 26.04296875 58.95117188 C24.94597656 59.61310547 23.84898437 60.27503906 22.71875 60.95703125 C21.71779297 61.56522705 20.71683594 62.17342285 19.68554688 62.80004883 C17 64 17 64 14.64257812 63.69018555 C14.10052734 63.46242432 13.55847656 63.23466309 13 63 C13.09023438 61.9378125 13.18046875 60.875625 13.2734375 59.78125 C13.74511044 52.13508049 13.74511044 52.13508049 10.67529297 45.44091797 C6.18010693 41.84077341 0.79330404 38.84303272 -5.05859375 39.171875 C-10.97466816 40.83748957 -15.87269444 42.21756657 -20 47 C-21.5384294 53.50021072 -20.72608579 60.42333835 -20 67 C-18.9790625 67.55945313 -17.958125 68.11890625 -16.90625 68.6953125 C-3.80741874 75.90678779 9.12378873 83.39874708 22 91 C22.93030029 91.47445557 23.86060059 91.94891113 24.8190918 92.43774414 C25.5387915 92.95328857 26.25849121 93.46883301 27 94 C27 95.32 27 96.64 27 98 C26.15703369 98.44915771 25.31406738 98.89831543 24.44555664 99.36108398 C21.32674536 101.02349011 18.20920164 102.68826088 15.09204102 104.35375977 C13.74115055 105.0751122 12.38991436 105.79581755 11.03833008 106.51586914 C9.09886493 107.54925486 7.16064343 108.58493954 5.22265625 109.62109375 C4.31169945 110.10551186 4.31169945 110.10551186 3.38233948 110.59971619 C0.50891122 112.03920196 0.50891122 112.03920196 -2 114 C-7.17723838 113.61734148 -10.75363162 112.36116126 -15.2109375 109.75390625 C-15.77726395 109.42689224 -16.34359039 109.09987823 -16.92707825 108.76295471 C-18.74963908 107.70700546 -20.56230708 106.63528466 -22.375 105.5625 C-23.62747299 104.8315967 -24.88048746 104.10162052 -26.1340332 103.37255859 C-28.61437784 101.92759687 -31.0907882 100.47623759 -33.56396484 99.01904297 C-36.56095301 97.25798768 -39.56737691 95.51571871 -42.58203125 93.78515625 C-44.1174455 92.89888432 -45.65262525 92.01220592 -47.1875 91.125 C-47.88085449 90.72740479 -48.57420898 90.32980957 -49.28857422 89.92016602 C-53.88481638 87.23036725 -53.88481638 87.23036725 -55 85 C-55.11626049 83.20394492 -55.16963589 81.40366789 -55.19287109 79.60400391 C-55.20893402 78.47588287 -55.22499695 77.34776184 -55.24154663 76.18545532 C-55.28588496 71.02892838 -55.32749293 65.8724905 -55.35009766 60.71582031 C-55.36344369 57.99184637 -55.39130731 55.26862042 -55.43212891 52.54492188 C-55.49085827 48.62632197 -55.50874843 44.70808756 -55.5234375 40.7890625 C-55.54610687 39.56917633 -55.56877625 38.34929016 -55.59213257 37.09243774 C-55.57099178 28.67758202 -55.57099178 28.67758202 -52.81591797 25.40820312 C-51.88666504 24.94349609 -50.95741211 24.47878906 -50 24 C-49.1140918 23.44812012 -48.22818359 22.89624023 -47.31542969 22.32763672 C-45.88312012 21.51190186 -45.88312012 21.51190186 -44.421875 20.6796875 C-42.81566284 19.75929688 -42.81566284 19.75929688 -41.17700195 18.8203125 C-40.04609131 18.17835938 -38.91518066 17.53640625 -37.75 16.875 C-28.17388047 11.44874978 -28.17388047 11.44874978 -18.75390625 5.7578125 C-17.99174805 5.28617676 -17.22958984 4.81454102 -16.44433594 4.32861328 C-15.06673557 3.4700584 -13.69806897 2.59692229 -12.34082031 1.70654297 C-7.76111477 -1.12167266 -5.13917275 -1.57343534 0 0 Z " fill="#666860" transform="translate(807,283)"/>
<path d="M0 0 C2.76635742 1.31591797 2.76635742 1.31591797 5.60546875 2.9921875 C6.66314453 3.61005127 7.72082031 4.22791504 8.81054688 4.86450195 C9.92494141 5.52796631 11.03933594 6.19143066 12.1875 6.875 C13.34518559 7.55581245 14.5033937 8.23573713 15.66210938 8.91479492 C17.99505155 10.28312359 20.32529365 11.65589083 22.65380859 13.03173828 C25.71288817 14.83111808 28.78328341 16.60782559 31.86328125 18.37109375 C33.17486206 19.12253662 33.17486206 19.12253662 34.51293945 19.88916016 C36.13698782 20.81859983 37.76179258 21.74671944 39.38745117 22.67333984 C40.10521729 23.08664551 40.8229834 23.49995117 41.5625 23.92578125 C42.18253906 24.28067627 42.80257812 24.63557129 43.44140625 25.0012207 C45 26 45 26 47 28 C47.18765773 30.40926234 47.25200981 32.70248397 47.22705078 35.11181641 C47.22734283 35.84362625 47.22763489 36.5754361 47.22793579 37.329422 C47.22654001 39.75358854 47.2109674 42.17744951 47.1953125 44.6015625 C47.19158325 46.28022087 47.18873586 47.95888141 47.18673706 49.63754272 C47.17909369 54.05991607 47.15943922 58.48215845 47.1373291 62.90447998 C47.11688579 67.41546863 47.10773859 71.9264784 47.09765625 76.4375 C47.07619394 85.29172427 47.04204955 94.14585125 47 103 C41.99379862 102.3725545 38.5287921 101.5244241 34.171875 98.9453125 C32.60179687 98.02298828 32.60179687 98.02298828 31 97.08203125 C29.9275 96.43621094 28.855 95.79039062 27.75 95.125 C26.66203125 94.48691406 25.5740625 93.84882813 24.453125 93.19140625 C18.61322454 89.72938605 18.61322454 89.72938605 16 88 C15.39687988 87.60820557 14.79375977 87.21641113 14.17236328 86.81274414 C12.17170462 83.71926422 12.79090862 80.22532976 12.9453125 76.67578125 C12.97178088 74.99027924 12.99511776 73.3047257 13.015625 71.61914062 C13.06071487 68.96790542 13.12452528 66.32309988 13.24316406 63.67407227 C13.9925666 54.06862082 13.9925666 54.06862082 10.78308105 45.3661499 C7.33954625 42.18472325 3.5202209 40.26152322 -1 39 C-6.28634279 39.32487256 -9.50127406 40.54379742 -13.875 43.5 C-14.82117188 44.1290625 -15.76734375 44.758125 -16.7421875 45.40625 C-18.866862 46.81022636 -18.866862 46.81022636 -20 48 C-20.04883311 50.73980448 -20.03909015 53.46036247 -20 56.19921875 C-19.99884103 57.90039073 -20.00022517 59.60156598 -20.00390625 61.30273438 C-20.00831868 63.99211088 -20.00018151 66.6780138 -19.94873047 69.36694336 C-19.68834163 84.22418214 -19.68834163 84.22418214 -22.72753906 88.33886719 C-25.08442251 89.92839323 -27.36195456 90.94982427 -30 92 C-31.63491484 92.97240782 -33.2549203 93.97030266 -34.859375 94.9921875 C-36.48776883 95.95619665 -38.11798471 96.91713457 -39.75 97.875 C-40.57371094 98.37257813 -41.39742188 98.87015625 -42.24609375 99.3828125 C-43.04660156 99.85203125 -43.84710938 100.32125 -44.671875 100.8046875 C-45.74066895 101.43866455 -45.74066895 101.43866455 -46.83105469 102.08544922 C-49.36638125 103.15448719 -51.27437401 103.06589093 -54 103 C-54.11583031 93.2904258 -54.20468288 83.58101585 -54.25906086 73.87089157 C-54.28515929 69.36208449 -54.32056122 64.85374995 -54.37719727 60.34521484 C-54.43150921 55.99448247 -54.46141868 51.64420468 -54.47438622 47.29315948 C-54.48362767 45.63290499 -54.50167443 43.97267549 -54.52865028 42.31261444 C-54.56493208 39.98748449 -54.56994607 37.66423449 -54.56762695 35.33886719 C-54.58560333 34.6519429 -54.60357971 33.96501862 -54.62210083 33.25727844 C-54.58277734 29.61540512 -54.26582507 28.26505665 -51.64576721 25.65257263 C-48.76164064 23.85111836 -45.87756226 22.09465173 -42.9140625 20.42578125 C-42.33966431 20.10014191 -41.76526611 19.77450256 -41.17346191 19.43899536 C-39.32632473 18.39260617 -37.4759115 17.35219623 -35.625 16.3125 C-33.09225764 14.88544222 -30.56106841 13.45567218 -28.03125 12.0234375 C-27.41524933 11.67492233 -26.79924866 11.32640717 -26.1645813 10.96733093 C-22.73947923 9.01995957 -19.36201714 7.01852757 -16.03125 4.9140625 C-15.3511084 4.48569092 -14.6709668 4.05731934 -13.97021484 3.6159668 C-12.26555067 2.52726423 -10.57356106 1.41878407 -8.8828125 0.30859375 C-5.29180712 -1.32146967 -3.79462749 -0.92023735 0 0 Z " fill="#666860" transform="translate(400,282)"/>
<path d="M0 0 C1.90242298 1.02765371 3.76085371 2.11017467 5.61791992 3.2175293 C6.2630957 3.59458008 6.90827148 3.97163086 7.57299805 4.36010742 C9.15420144 5.28540422 10.73033452 6.2193561 12.30541992 7.1550293 C13.30092269 13.73109085 14.25000301 20.69287129 12.30541992 27.1550293 C8.5789298 32.06017001 2.27132548 35.69540969 -3.69458008 37.1550293 C-6.28833008 36.5612793 -6.28833008 36.5612793 -8.69458008 35.1550293 C-9.79415039 34.74510742 -10.8937207 34.33518555 -12.02661133 33.9128418 C-20.66089243 29.86219141 -20.66089243 29.86219141 -22.5300293 24.96704102 C-23.82035072 19.01180186 -23.96449398 12.879804 -21.69458008 7.1550293 C-16.63023296 0.82246179 -7.63730716 -3.80820056 0 0 Z " fill="#8DC606" transform="translate(536.694580078125,322.844970703125)"/>
<path d="M0 0 C2.27556778 1.28921056 4.48147113 2.60260408 6.6875 4 C7.57791992 4.55300781 7.57791992 4.55300781 8.48632812 5.1171875 C12.83363412 7.83363412 12.83363412 7.83363412 14 9 C15.12661283 15.09660941 15.63938206 21.98055925 14 28 C10.30070767 33.20251137 3.87779342 35.10258284 -1.96875 36.92578125 C-6.26851624 37.03105903 -8.81274254 35.31215111 -12.375 33.0625 C-13.01566406 32.67642578 -13.65632812 32.29035156 -14.31640625 31.89257812 C-15.88674415 30.94334402 -17.44469219 29.9736653 -19 29 C-21.37450863 11.19483836 -21.37450863 11.19483836 -17.59228516 6.10595703 C-12.88716631 2.06255563 -6.23140915 -2.16335131 0 0 Z " fill="#8AC301" transform="translate(670,322)"/>
<path d="M0 0 C1.69270833 1.00911458 3.38541667 2.01822917 5.078125 3.02734375 C5.54870865 7.12534305 5.77222451 10.94752223 5.078125 15.02734375 C2.82229143 17.76068954 0.44151593 18.99632298 -2.921875 20.02734375 C-5.546875 20.08984375 -5.546875 20.08984375 -7.921875 19.02734375 C-9.5615625 18.37765625 -9.5615625 18.37765625 -11.234375 17.71484375 C-14.39064702 14.55857173 -14.5033555 13.43393238 -14.796875 9.08984375 C-14.63611607 5.62929615 -14.5397026 3.74379172 -12.2578125 1.09765625 C-7.64112803 -1.96284244 -4.99206313 -2.52647098 0 0 Z " fill="#676A5E" transform="translate(806.921875,329.97265625)"/>
</svg>
